SplineFontDB: 3.0
FontName: Digiface
FullName: Digiface Regular
FamilyName: Digiface
Weight: Thin
Copyright: From the WSI-FONT Collection.  Copyright (c)1993 W.S.I.  All Rights Reserved.  Redistribution strictly prohibited.  
Version: Publisher's Paradise -- Media Graphics International Inc.
ItalicAngle: 0
UnderlinePosition: 0
UnderlineWidth: 0
Ascent: 800
Descent: 200
sfntRevision: 0x00010000
LayerCount: 2
Layer: 0 1 "Back"  1
Layer: 1 1 "Fore"  0
NeedsXUIDChange: 1
XUID: [1021 223 173532269 11619766]
FSType: 2
OS2Version: 0
OS2_WeightWidthSlopeOnly: 0
OS2_UseTypoMetrics: 1
CreationTime: 749409403
ModificationTime: 1325850624
PfmFamily: 81
TTFWeight: 5
TTFWidth: 5
LineGap: 0
VLineGap: 0
Panose: 0 0 0 0 0 0 0 0 0 0
OS2TypoAscent: 201
OS2TypoAOffset: 1
OS2TypoDescent: -19
OS2TypoDOffset: 1
OS2TypoLinegap: 0
OS2WinAscent: 0
OS2WinAOffset: 1
OS2WinDescent: 0
OS2WinDOffset: 1
HheadAscent: 0
HheadAOffset: 1
HheadDescent: 0
HheadDOffset: 1
OS2SubXSize: 700
OS2SubYSize: 650
OS2SubXOff: 0
OS2SubYOff: 143
OS2SupXSize: 700
OS2SupYSize: 650
OS2SupXOff: 0
OS2SupYOff: 453
OS2StrikeYSize: 50
OS2StrikeYPos: 259
OS2Vendor: 'Alts'
OS2UnicodeRanges: 00000000.00000000.00000000.00000000
DEI: 91125
TtTable: prep
NPUSHB
 14
 51
 51
 50
 50
 21
 21
 2
 2
 0
 0
 23
 23
 69
 1
SCANTYPE
PUSHW_1
 511
SCANCTRL
SROUND
RCVT
ROUND[Grey]
WCVTP
RTG
PUSHB_4
 1
 0
 70
 0
CALL
PUSHB_4
 3
 0
 70
 0
CALL
PUSHB_4
 4
 21
 70
 0
CALL
PUSHB_4
 5
 21
 70
 0
CALL
PUSHB_4
 6
 0
 70
 0
CALL
PUSHB_4
 7
 0
 70
 0
CALL
PUSHB_4
 8
 0
 70
 0
CALL
PUSHB_4
 9
 0
 70
 0
CALL
PUSHB_4
 10
 2
 70
 0
CALL
PUSHB_4
 11
 0
 70
 0
CALL
PUSHB_4
 12
 2
 70
 0
CALL
PUSHB_4
 13
 2
 70
 0
CALL
PUSHB_4
 14
 0
 70
 0
CALL
PUSHB_4
 15
 2
 70
 0
CALL
PUSHB_4
 16
 2
 70
 0
CALL
PUSHB_4
 17
 21
 70
 0
CALL
PUSHB_4
 18
 2
 70
 0
CALL
PUSHB_4
 19
 2
 70
 0
CALL
PUSHB_4
 20
 21
 70
 0
CALL
PUSHB_4
 22
 2
 70
 0
CALL
PUSHB_4
 24
 2
 70
 0
CALL
PUSHB_4
 25
 2
 70
 0
CALL
PUSHB_4
 26
 23
 70
 0
CALL
PUSHB_4
 27
 21
 70
 0
CALL
PUSHB_4
 28
 2

StartChar: .notdef
Encoding: 65536 -1 0
Width: 900
Flags: W
LayerCount: 2
Fore
SplineSet
56 0 m 1,0,-1
 56 900 l 1,1,-1
 844 900 l 1,2,-1
 844 0 l 1,3,-1
 56 0 l 1,0,-1
788 56 m 1,4,-1
 788 844 l 1,5,-1
 112 844 l 1,6,-1
 112 56 l 1,7,-1
 788 56 l 1,4,-1
EndSplineSet
EndChar

StartChar: exclam
Encoding: 33 33 4
Width: 170
Flags: W
LayerCount: 2
Fore
SplineSet
129 212 m 1,0,-1
 43 277 l 1,1,-1
 43 634 l 1,2,-1
 129 720 l 1,3,-1
 129 212 l 1,0,-1
129 0 m 1,4,-1
 43 0 l 1,5,-1
 43 155 l 1,6,-1
 129 155 l 1,7,-1
 129 0 l 1,4,-1
EndSplineSet
EndChar

StartChar: quotedbl
Encoding: 34 34 5
Width: 286
Flags: W
LayerCount: 2
Fore
SplineSet
237 720 m 1,0,-1
 217 495 l 1,1,-1
 154 495 l 1,2,-1
 174 720 l 1,3,-1
 237 720 l 1,0,-1
133 720 m 1,4,-1
 113 495 l 1,5,-1
 50 495 l 1,6,-1
 70 720 l 1,7,-1
 133 720 l 1,4,-1
EndSplineSet
EndChar

StartChar: numbersign
Encoding: 35 35 6
Width: 583
Flags: W
LayerCount: 2
Fore
SplineSet
534 491 m 1,0,-1
 524 446 l 1,1,-1
 409 446 l 1,2,-1
 373 274 l 1,3,-1
 488 274 l 1,4,-1
 478 229 l 1,5,-1
 363 229 l 1,6,-1
 318 16 l 1,7,-1
 273 16 l 1,8,-1
 318 229 l 1,9,-1
 210 229 l 1,10,-1
 165 16 l 1,11,-1
 120 16 l 1,12,-1
 165 229 l 1,13,-1
 50 229 l 1,14,-1
 60 274 l 1,15,-1
 175 274 l 1,16,-1
 211 446 l 1,17,-1
 96 446 l 1,18,-1
 105 491 l 1,19,-1
 221 491 l 1,20,-1
 265 704 l 1,21,-1
 310 704 l 1,22,-1
 266 491 l 1,23,-1
 374 491 l 1,24,-1
 418 704 l 1,25,-1
 463 704 l 1,26,-1
 419 491 l 1,27,-1
 534 491 l 1,0,-1
364 446 m 1,28,-1
 256 446 l 1,29,-1
 220 274 l 1,30,-1
 328 274 l 1,31,-1
 364 446 l 1,28,-1
EndSplineSet
EndChar

StartChar: dollar
Encoding: 36 36 7
Width: 495
Flags: W
LayerCount: 2
Fore
SplineSet
294 736 m 1,0,-1
 249 695 l 1,1,-1
 208 736 l 1,2,-1
 208 802 l 1,3,-1
 250 845 l 1,4,-1
 294 805 l 1,5,-1
 294 736 l 1,0,-1
412 720 m 1,6,-1
 378 634 l 1,7,-1
 145 634 l 1,8,-1
 104 678 l 1,9,-1
 145 720 l 1,10,-1
 201 720 l 1,11,-1
 250 671 l 1,12,-1
 301 720 l 1,13,-1
 412 720 l 1,6,-1
453 101 m 1,14,-1
 410 58 l 1,15,-1
 367 101 l 1,16,-1
 367 306 l 1,17,-1
 453 349 l 1,18,-1
 453 101 l 1,14,-1
434 360 m 1,19,-1
 353 320 l 1,20,-1
 144 320 l 1,21,-1
 63 360 l 1,22,-1
 144 407 l 1,23,-1
 353 407 l 1,24,-1
 434 360 l 1,19,-1
129 421 m 1,25,-1
 43 371 l 1,26,-1
 43 619 l 1,27,-1
 86 662 l 1,28,-1
 129 619 l 1,29,-1
 129 421 l 1,25,-1
398 45 m 1,30,-1
 356 0 l 1,31,-1
 304 0 l 1,32,-1
 250 47 l 1,33,-1
 201 0 l 1,34,-1
 50 0 l 1,35,-1
 144 86 l 1,36,-1
 355 86 l 1,37,-1
 398 45 l 1,30,-1
294 -84 m 1,38,-1
 251 -120 l 1,39,-1
 207 -79 l 1,40,-1
 207 -11 l 1,41,-1
 250 24 l 1,42,-1
 294 -12 l 1,43,-1
 294 -84 l 1,38,-1
EndSplineSet
EndChar

StartChar: percent
Encoding: 37 37 8
Width: 908
Flags: W
LayerCount: 2
Fore
SplineSet
723 720 m 1,0,-1
 493 341 l 1,1,-1
 445 428 l 1,2,-1
 622 720 l 1,3,-1
 723 720 l 1,0,-1
887 104 m 1,4,-1
 843 61 l 1,5,-1
 801 104 l 1,6,-1
 801 273 l 1,7,-1
 842 317 l 1,8,-1
 887 274 l 1,9,-1
 887 104 l 1,4,-1
829 329 m 1,10,-1
 785 282 l 1,11,-1
 614 282 l 1,12,-1
 570 328 l 1,13,-1
 614 369 l 1,14,-1
 786 369 l 1,15,-1
 829 329 l 1,10,-1
339 675 m 1,16,-1
 296 634 l 1,17,-1
 124 634 l 1,18,-1
 81 675 l 1,19,-1
 124 720 l 1,20,-1
 297 720 l 1,21,-1
 339 675 l 1,16,-1
397 451 m 1,22,-1
 353 407 l 1,23,-1
 311 450 l 1,24,-1
 311 620 l 1,25,-1
 353 663 l 1,26,-1
 397 621 l 1,27,-1
 397 451 l 1,22,-1
601 103 m 1,28,-1
 557 60 l 1,29,-1
 512 104 l 1,30,-1
 512 273 l 1,31,-1
 557 316 l 1,32,-1
 601 273 l 1,33,-1
 601 103 l 1,28,-1
829 45 m 1,34,-1
 786 0 l 1,35,-1
 613 0 l 1,36,-1
 570 45 l 1,37,-1
 614 86 l 1,38,-1
 785 86 l 1,39,-1
 829 45 l 1,34,-1
339 392 m 1,40,-1
 296 353 l 1,41,-1
 124 353 l 1,42,-1
 80 392 l 1,43,-1
 125 438 l 1,44,-1
 296 438 l 1,45,-1
 339 392 l 1,40,-1
111 450 m 1,46,-1
 67 407 l 1,47,-1
 22 450 l 1,48,-1
 22 620 l 1,49,-1
 67 662 l 1,50,-1
 111 619 l 1,51,-1
 111 450 l 1,46,-1
481 320 m 1,52,-1
 287 0 l 1,53,-1
 186 0 l 1,54,-1
 381 320 l 1,55,-1
 481 320 l 1,52,-1
EndSplineSet
EndChar

StartChar: ampersand
Encoding: 38 38 9
Width: 574
Flags: W
LayerCount: 2
Fore
SplineSet
397 676 m 1,0,-1
 353 634 l 1,1,-1
 144 634 l 1,2,-1
 100 676 l 1,3,-1
 144 720 l 1,4,-1
 353 720 l 1,5,-1
 397 676 l 1,0,-1
457 420 m 1,6,-1
 412 373 l 1,7,-1
 370 421 l 1,8,-1
 370 512 l 1,9,-1
 413 557 l 1,10,-1
 457 512 l 1,11,-1
 457 420 l 1,6,-1
597 360 m 1,12,-1
 525 320 l 1,13,-1
 471 320 l 1,14,-1
 427 359 l 1,15,-1
 473 407 l 1,16,-1
 514 407 l 1,17,-1
 597 360 l 1,12,-1
399 360 m 1,18,-1
 355 320 l 1,19,-1
 281 320 l 1,20,-1
 195 361 l 1,21,-1
 268 407 l 1,22,-1
 355 407 l 1,23,-1
 399 360 l 1,18,-1
456 100 m 1,24,-1
 411 59 l 1,25,-1
 369 101 l 1,26,-1
 369 305 l 1,27,-1
 412 345 l 1,28,-1
 456 304 l 1,29,-1
 456 100 l 1,24,-1
129 421 m 1,30,-1
 43 371 l 1,31,-1
 43 619 l 1,32,-1
 86 662 l 1,33,-1
 129 619 l 1,34,-1
 129 421 l 1,30,-1
129 101 m 1,35,-1
 86 58 l 1,36,-1
 43 101 l 1,37,-1
 43 349 l 1,38,-1
 129 306 l 1,39,-1
 129 101 l 1,35,-1
397 44 m 1,40,-1
 353 0 l 1,41,-1
 144 0 l 1,42,-1
 100 44 l 1,43,-1
 144 86 l 1,44,-1
 353 86 l 1,45,-1
 397 44 l 1,40,-1
EndSplineSet
EndChar

StartChar: quotesingle
Encoding: 39 39 10
Width: 182
Flags: W
LayerCount: 2
Fore
SplineSet
133 720 m 1,0,-1
 113 495 l 1,1,-1
 50 495 l 1,2,-1
 70 720 l 1,3,-1
 133 720 l 1,0,-1
EndSplineSet
EndChar

StartChar: parenleft
Encoding: 40 40 11
Width: 268
Flags: W
LayerCount: 2
Fore
SplineSet
255 720 m 1,0,-1
 191 634 l 1,1,-1
 144 634 l 1,2,-1
 100 676 l 1,3,-1
 144 720 l 1,4,-1
 255 720 l 1,0,-1
129 421 m 1,5,-1
 43 371 l 1,6,-1
 43 619 l 1,7,-1
 86 662 l 1,8,-1
 129 619 l 1,9,-1
 129 421 l 1,5,-1
129 101 m 1,10,-1
 86 58 l 1,11,-1
 43 101 l 1,12,-1
 43 349 l 1,13,-1
 129 306 l 1,14,-1
 129 101 l 1,10,-1
255 0 m 1,15,-1
 144 0 l 1,16,-1
 100 44 l 1,17,-1
 144 86 l 1,18,-1
 191 86 l 1,19,-1
 255 0 l 1,15,-1
EndSplineSet
EndChar

StartChar: parenright
Encoding: 41 41 12
Width: 268
Flags: W
LayerCount: 2
Fore
SplineSet
170 676 m 1,0,-1
 126 634 l 1,1,-1
 79 634 l 1,2,-1
 14 720 l 1,3,-1
 126 720 l 1,4,-1
 170 676 l 1,0,-1
226 371 m 1,5,-1
 140 414 l 1,6,-1
 140 619 l 1,7,-1
 183 662 l 1,8,-1
 226 619 l 1,9,-1
 226 371 l 1,5,-1
226 101 m 1,10,-1
 183 58 l 1,11,-1
 140 101 l 1,12,-1
 140 299 l 1,13,-1
 226 349 l 1,14,-1
 226 101 l 1,10,-1
170 44 m 1,15,-1
 126 0 l 1,16,-1
 14 0 l 1,17,-1
 79 86 l 1,18,-1
 126 86 l 1,19,-1
 170 44 l 1,15,-1
EndSplineSet
EndChar

StartChar: asterisk
Encoding: 42 42 13
Width: 400
Flags: W
LayerCount: 2
Fore
SplineSet
246 583 m 1,0,-1
 202 551 l 1,1,-1
 158 585 l 1,2,-1
 158 715 l 1,3,-1
 202 748 l 1,4,-1
 246 714 l 1,5,-1
 246 583 l 1,0,-1
380 442 m 1,6,-1
 336 416 l 1,7,-1
 212 485 l 1,8,-1
 212 536 l 1,9,-1
 253 560 l 1,10,-1
 373 494 l 1,11,-1
 380 442 l 1,6,-1
189 486 m 1,12,-1
 72 416 l 1,13,-1
 22 437 l 1,14,-1
 28 492 l 1,15,-1
 150 563 l 1,16,-1
 189 534 l 1,17,-1
 189 486 l 1,12,-1
EndSplineSet
EndChar

StartChar: plus
Encoding: 43 43 14
Width: 496
Flags: W
LayerCount: 2
Fore
SplineSet
455 403 m 1,0,-1
 416 317 l 1,1,-1
 305 317 l 1,2,-1
 266 360 l 1,3,-1
 308 403 l 1,4,-1
 455 403 l 1,0,-1
290 418 m 1,5,-1
 248 374 l 1,6,-1
 203 419 l 1,7,-1
 203 526 l 1,8,-1
 290 565 l 1,9,-1
 290 418 l 1,5,-1
235 361 m 1,10,-1
 189 317 l 1,11,-1
 42 317 l 1,12,-1
 82 403 l 1,13,-1
 190 403 l 1,14,-1
 235 361 l 1,10,-1
290 195 m 1,15,-1
 204 156 l 1,16,-1
 204 302 l 1,17,-1
 248 346 l 1,18,-1
 290 302 l 1,19,-1
 290 195 l 1,15,-1
EndSplineSet
EndChar

StartChar: comma
Encoding: 44 44 15
Width: 143
Flags: W
LayerCount: 2
Fore
SplineSet
122 155 m 1,0,-1
 75 -94 l 1,1,-1
 -14 -94 l 1,2,-1
 33 155 l 1,3,-1
 122 155 l 1,0,-1
EndSplineSet
EndChar

StartChar: hyphen
Encoding: 45 45 16
Width: 342
Flags: W
LayerCount: 2
Fore
SplineSet
321 302 m 1,0,-1
 263 216 l 1,1,-1
 22 216 l 1,2,-1
 80 302 l 1,3,-1
 321 302 l 1,0,-1
EndSplineSet
EndChar

StartChar: period
Encoding: 46 46 17
Width: 129
Flags: HWO
LayerCount: 2
Fore
SplineSet
108 0 m 1,0,-1
 22 0 l 1,1,-1
 22 91 l 1,2,-1
 108 91 l 1,3,-1
 108 0 l 1,0,-1
EndSplineSet
EndChar

StartChar: slash
Encoding: 47 47 18
Width: 580
Flags: W
LayerCount: 2
Fore
SplineSet
559 720 m 1,0,-1
 329 341 l 1,1,-1
 280 428 l 1,2,-1
 457 720 l 1,3,-1
 559 720 l 1,0,-1
316 320 m 1,4,-1
 123 0 l 1,5,-1
 22 0 l 1,6,-1
 216 320 l 1,7,-1
 316 320 l 1,4,-1
EndSplineSet
EndChar

StartChar: zero
Encoding: 48 48 19
Width: 495
Flags: HW
LayerCount: 2
Fore
SplineSet
453 371 m 1,0,-1
 367 421 l 1,1,-1
 367 619 l 1,2,-1
 410 662 l 1,3,-1
 453 619 l 1,4,-1
 453 371 l 1,0,-1
397 676 m 1,5,-1
 353 634 l 1,6,-1
 144 634 l 1,7,-1
 100 676 l 1,8,-1
 144 720 l 1,9,-1
 353 720 l 1,10,-1
 397 676 l 1,5,-1
453 101 m 1,11,-1
 410 58 l 1,12,-1
 367 101 l 1,13,-1
 367 306 l 1,14,-1
 453 349 l 1,15,-1
 453 101 l 1,11,-1
434 360 m 1,16,-1
129 421 m 1,17,-1
 43 371 l 1,18,-1
 43 619 l 1,19,-1
 86 662 l 1,20,-1
 129 619 l 1,21,-1
 129 421 l 1,17,-1
129 101 m 1,22,-1
 86 58 l 1,23,-1
 43 101 l 1,24,-1
 43 349 l 1,25,-1
 129 306 l 1,26,-1
 129 101 l 1,22,-1
397 44 m 1,27,-1
 353 0 l 1,28,-1
 144 0 l 1,29,-1
 100 44 l 1,30,-1
 144 86 l 1,31,-1
 353 86 l 1,32,-1
 397 44 l 1,27,-1
EndSplineSet
EndChar

StartChar: one
Encoding: 49 49 20
Width: 495
Flags: HW
LayerCount: 2
Fore
SplineSet
453 371 m 1,0,-1
 367 421 l 1,1,-1
 367 619 l 1,2,-1
 410 662 l 1,3,-1
 453 619 l 1,4,-1
 453 371 l 1,0,-1
353 634 m 1,5,-1
453 101 m 1,6,-1
 410 58 l 1,7,-1
 367 101 l 1,8,-1
 367 306 l 1,9,-1
 453 349 l 1,10,-1
 453 101 l 1,6,-1
353 320 m 1,11,-1
EndSplineSet
EndChar

StartChar: two
Encoding: 50 50 21
Width: 495
Flags: HW
LayerCount: 2
Fore
SplineSet
453 371 m 1,0,-1
 367 421 l 1,1,-1
 367 619 l 1,2,-1
 410 662 l 1,3,-1
 453 619 l 1,4,-1
 453 371 l 1,0,-1
397 676 m 1,5,-1
 353 634 l 1,6,-1
 144 634 l 1,7,-1
 100 676 l 1,8,-1
 144 720 l 1,9,-1
 353 720 l 1,10,-1
 397 676 l 1,5,-1
434 360 m 1,11,-1
 353 320 l 1,12,-1
 144 320 l 1,13,-1
 63 360 l 1,14,-1
 144 407 l 1,15,-1
 353 407 l 1,16,-1
 434 360 l 1,11,-1
129 101 m 1,17,-1
 86 58 l 1,18,-1
 43 101 l 1,19,-1
 43 349 l 1,20,-1
 129 306 l 1,21,-1
 129 101 l 1,17,-1
397 44 m 1,22,-1
 353 0 l 1,23,-1
 144 0 l 1,24,-1
 100 44 l 1,25,-1
 144 86 l 1,26,-1
 353 86 l 1,27,-1
 397 44 l 1,22,-1
EndSplineSet
EndChar

StartChar: three
Encoding: 51 51 22
Width: 495
Flags: HW
LayerCount: 2
Fore
SplineSet
453 371 m 1,0,-1
 367 421 l 1,1,-1
 367 619 l 1,2,-1
 410 662 l 1,3,-1
 453 619 l 1,4,-1
 453 371 l 1,0,-1
397 676 m 1,5,-1
 353 634 l 1,6,-1
 144 634 l 1,7,-1
 100 676 l 1,8,-1
 144 720 l 1,9,-1
 353 720 l 1,10,-1
 397 676 l 1,5,-1
453 101 m 1,11,-1
 410 58 l 1,12,-1
 367 101 l 1,13,-1
 367 306 l 1,14,-1
 453 349 l 1,15,-1
 453 101 l 1,11,-1
434 360 m 1,16,-1
 353 320 l 1,17,-1
 144 320 l 1,18,-1
 63 360 l 1,19,-1
 144 407 l 1,20,-1
 353 407 l 1,21,-1
 434 360 l 1,16,-1
397 44 m 1,22,-1
 353 0 l 1,23,-1
 144 0 l 1,24,-1
 100 44 l 1,25,-1
 144 86 l 1,26,-1
 353 86 l 1,27,-1
 397 44 l 1,22,-1
EndSplineSet
EndChar

StartChar: four
Encoding: 52 52 23
Width: 495
Flags: HW
LayerCount: 2
Fore
SplineSet
453 371 m 1,0,-1
 367 421 l 1,1,-1
 367 619 l 1,2,-1
 410 662 l 1,3,-1
 453 619 l 1,4,-1
 453 371 l 1,0,-1
453 101 m 1,5,-1
 410 58 l 1,6,-1
 367 101 l 1,7,-1
 367 306 l 1,8,-1
 453 349 l 1,9,-1
 453 101 l 1,5,-1
434 360 m 1,10,-1
 353 320 l 1,11,-1
 144 320 l 1,12,-1
 63 360 l 1,13,-1
 144 407 l 1,14,-1
 353 407 l 1,15,-1
 434 360 l 1,10,-1
129 421 m 1,16,-1
 43 371 l 1,17,-1
 43 619 l 1,18,-1
 86 662 l 1,19,-1
 129 619 l 1,20,-1
 129 421 l 1,16,-1
EndSplineSet
EndChar

StartChar: five
Encoding: 53 53 24
Width: 495
Flags: HW
LayerCount: 2
Fore
SplineSet
397 676 m 1,0,-1
 353 634 l 1,1,-1
 144 634 l 1,2,-1
 100 676 l 1,3,-1
 144 720 l 1,4,-1
 353 720 l 1,5,-1
 397 676 l 1,0,-1
453 101 m 1,6,-1
 410 58 l 1,7,-1
 367 101 l 1,8,-1
 367 306 l 1,9,-1
 453 349 l 1,10,-1
 453 101 l 1,6,-1
434 360 m 1,11,-1
 353 320 l 1,12,-1
 144 320 l 1,13,-1
 63 360 l 1,14,-1
 144 407 l 1,15,-1
 353 407 l 1,16,-1
 434 360 l 1,11,-1
129 421 m 1,17,-1
 43 371 l 1,18,-1
 43 619 l 1,19,-1
 86 662 l 1,20,-1
 129 619 l 1,21,-1
 129 421 l 1,17,-1
397 44 m 1,22,-1
 353 0 l 1,23,-1
 144 0 l 1,24,-1
 100 44 l 1,25,-1
 144 86 l 1,26,-1
 353 86 l 1,27,-1
 397 44 l 1,22,-1
EndSplineSet
EndChar

StartChar: six
Encoding: 54 54 25
Width: 495
Flags: HW
LayerCount: 2
Fore
SplineSet
453 371 m 1,0,-1
397 676 m 1,1,-1
 353 634 l 1,2,-1
 144 634 l 1,3,-1
 100 676 l 1,4,-1
 144 720 l 1,5,-1
 353 720 l 1,6,-1
 397 676 l 1,1,-1
453 101 m 1,7,-1
 410 58 l 1,8,-1
 367 101 l 1,9,-1
 367 306 l 1,10,-1
 453 349 l 1,11,-1
 453 101 l 1,7,-1
434 360 m 1,12,-1
 353 320 l 1,13,-1
 144 320 l 1,14,-1
 63 360 l 1,15,-1
 144 407 l 1,16,-1
 353 407 l 1,17,-1
 434 360 l 1,12,-1
129 421 m 1,18,-1
 43 371 l 1,19,-1
 43 619 l 1,20,-1
 86 662 l 1,21,-1
 129 619 l 1,22,-1
 129 421 l 1,18,-1
129 101 m 1,23,-1
 86 58 l 1,24,-1
 43 101 l 1,25,-1
 43 349 l 1,26,-1
 129 306 l 1,27,-1
 129 101 l 1,23,-1
397 44 m 1,28,-1
 353 0 l 1,29,-1
 144 0 l 1,30,-1
 100 44 l 1,31,-1
 144 86 l 1,32,-1
 353 86 l 1,33,-1
 397 44 l 1,28,-1
EndSplineSet
EndChar

StartChar: seven
Encoding: 55 55 26
Width: 495
Flags: HW
LayerCount: 2
Fore
SplineSet
453 371 m 1,0,-1
 367 421 l 1,1,-1
 367 619 l 1,2,-1
 410 662 l 1,3,-1
 453 619 l 1,4,-1
 453 371 l 1,0,-1
397 676 m 1,5,-1
 353 634 l 1,6,-1
 144 634 l 1,7,-1
 100 676 l 1,8,-1
 144 720 l 1,9,-1
 353 720 l 1,10,-1
 397 676 l 1,5,-1
453 101 m 1,11,-1
 410 58 l 1,12,-1
 367 101 l 1,13,-1
 367 306 l 1,14,-1
 453 349 l 1,15,-1
 453 101 l 1,11,-1
434 360 m 1,16,-1
86 662 m 1,17,-1
397 44 m 1,18,-1
EndSplineSet
EndChar

StartChar: eight
Encoding: 56 56 27
Width: 495
Flags: W
LayerCount: 2
Fore
SplineSet
453 371 m 5,0,-1
 367 421 l 5,1,-1
 367 619 l 5,2,-1
 410 662 l 5,3,-1
 453 619 l 5,4,-1
 453 371 l 5,0,-1
397 676 m 5,5,-1
 353 634 l 5,6,-1
 144 634 l 5,7,-1
 100 676 l 5,8,-1
 144 720 l 5,9,-1
 353 720 l 5,10,-1
 397 676 l 5,5,-1
453 101 m 5,11,-1
 410 58 l 5,12,-1
 367 101 l 5,13,-1
 367 306 l 5,14,-1
 453 349 l 5,15,-1
 453 101 l 5,11,-1
434 360 m 5,16,-1
 353 320 l 5,17,-1
 144 320 l 5,18,-1
 63 360 l 5,19,-1
 144 407 l 5,20,-1
 353 407 l 5,21,-1
 434 360 l 5,16,-1
129 421 m 5,22,-1
 43 371 l 5,23,-1
 43 619 l 5,24,-1
 86 662 l 5,25,-1
 129 619 l 5,26,-1
 129 421 l 5,22,-1
129 101 m 5,27,-1
 86 58 l 5,28,-1
 43 101 l 5,29,-1
 43 349 l 5,30,-1
 129 306 l 5,31,-1
 129 101 l 5,27,-1
397 44 m 5,32,-1
 353 0 l 5,33,-1
 144 0 l 5,34,-1
 100 44 l 5,35,-1
 144 86 l 5,36,-1
 353 86 l 5,37,-1
 397 44 l 5,32,-1
EndSplineSet
EndChar

StartChar: nine
Encoding: 57 57 28
Width: 495
Flags: HW
LayerCount: 2
Fore
SplineSet
453 371 m 1,0,-1
 367 421 l 1,1,-1
 367 619 l 1,2,-1
 410 662 l 1,3,-1
 453 619 l 1,4,-1
 453 371 l 1,0,-1
397 676 m 1,5,-1
 353 634 l 1,6,-1
 144 634 l 1,7,-1
 100 676 l 1,8,-1
 144 720 l 1,9,-1
 353 720 l 1,10,-1
 397 676 l 1,5,-1
453 101 m 1,11,-1
 410 58 l 1,12,-1
 367 101 l 1,13,-1
 367 306 l 1,14,-1
 453 349 l 1,15,-1
 453 101 l 1,11,-1
434 360 m 1,16,-1
 353 320 l 1,17,-1
 144 320 l 1,18,-1
 63 360 l 1,19,-1
 144 407 l 1,20,-1
 353 407 l 1,21,-1
 434 360 l 1,16,-1
129 421 m 1,22,-1
 43 371 l 1,23,-1
 43 619 l 1,24,-1
 86 662 l 1,25,-1
 129 619 l 1,26,-1
 129 421 l 1,22,-1
397 44 m 1,27,-1
 353 0 l 1,28,-1
 144 0 l 1,29,-1
 100 44 l 1,30,-1
 144 86 l 1,31,-1
 353 86 l 1,32,-1
 397 44 l 1,27,-1
EndSplineSet
EndChar

StartChar: colon
Encoding: 58 58 29
Width: 136
Flags: HWO
LayerCount: 2
Fore
SplineSet
115 0 m 1,0,-1
 29 0 l 1,1,-1
 29 108 l 1,2,-1
 115 108 l 1,3,-1
 115 0 l 1,0,-1
115 324 m 1,4,-1
 29 324 l 1,5,-1
 29 432 l 1,6,-1
 115 432 l 1,7,-1
 115 324 l 1,4,-1
EndSplineSet
EndChar

StartChar: semicolon
Encoding: 59 59 30
Width: 143
Flags: W
LayerCount: 2
Fore
SplineSet
118 320 m 1,0,-1
 32 320 l 1,1,-1
 32 468 l 1,2,-1
 118 468 l 1,3,-1
 118 320 l 1,0,-1
122 155 m 1,4,-1
 75 -94 l 1,5,-1
 -14 -94 l 1,6,-1
 33 155 l 1,7,-1
 122 155 l 1,4,-1
EndSplineSet
EndChar

StartChar: less
Encoding: 60 60 31
Width: 520
Flags: W
LayerCount: 2
Fore
SplineSet
471 122 m 1,0,-1
 50 360 l 1,1,-1
 471 598 l 1,2,-1
 471 527 l 1,3,-1
 168 360 l 1,4,-1
 471 193 l 1,5,-1
 471 122 l 1,0,-1
EndSplineSet
EndChar

StartChar: equal
Encoding: 61 61 32
Width: 495
Flags: W
LayerCount: 2
Fore
SplineSet
453 473 m 1,0,-1
 411 387 l 1,1,-1
 43 387 l 1,2,-1
 85 473 l 1,3,-1
 453 473 l 1,0,-1
453 336 m 1,4,-1
 411 249 l 1,5,-1
 43 249 l 1,6,-1
 85 336 l 1,7,-1
 453 336 l 1,4,-1
EndSplineSet
EndChar

StartChar: greater
Encoding: 62 62 33
Width: 520
Flags: W
LayerCount: 2
Fore
SplineSet
471 360 m 1,0,-1
 50 122 l 1,1,-1
 50 193 l 1,2,-1
 353 360 l 1,3,-1
 50 527 l 1,4,-1
 50 598 l 1,5,-1
 471 360 l 1,0,-1
EndSplineSet
EndChar

StartChar: question
Encoding: 63 63 34
Width: 418
Flags: W
LayerCount: 2
Fore
SplineSet
319 676 m 1,0,-1
 275 634 l 1,1,-1
 66 634 l 1,2,-1
 22 676 l 1,3,-1
 66 720 l 1,4,-1
 275 720 l 1,5,-1
 319 676 l 1,0,-1
376 371 m 1,6,-1
 289 421 l 1,7,-1
 289 619 l 1,8,-1
 332 662 l 1,9,-1
 376 619 l 1,10,-1
 376 371 l 1,6,-1
356 362 m 1,11,-1
 275 320 l 1,12,-1
 214 320 l 1,13,-1
 127 407 l 1,14,-1
 275 407 l 1,15,-1
 356 362 l 1,11,-1
196 203 m 1,16,-1
 110 203 l 1,17,-1
 110 393 l 1,18,-1
 196 310 l 1,19,-1
 196 203 l 1,16,-1
196 0 m 1,20,-1
 109 0 l 1,21,-1
 109 155 l 1,22,-1
 196 155 l 1,23,-1
 196 0 l 1,20,-1
EndSplineSet
EndChar

StartChar: at
Encoding: 64 64 35
Width: 773
Flags: W
LayerCount: 2
Fore
SplineSet
553 145 m 0,0,1
 548 144 548 144 537 144 c 0,2,3
 498 144 498 144 473 169 c 128,-1,4
 448 194 448 194 452 230 c 1,5,6
 441 194 441 194 411 175 c 128,-1,7
 381 156 381 156 345 156 c 0,8,9
 294 156 294 156 262 201 c 0,10,11
 226 251 226 251 226 342 c 0,12,13
 226 444 226 444 288 519 c 0,14,15
 344 587 344 587 405 587 c 0,16,17
 436 587 436 587 460.5 571 c 128,-1,18
 485 555 485 555 494 527 c 1,19,-1
 504 586 l 1,20,-1
 552 586 l 1,21,-1
 507 369 l 2,22,23
 499 334 499 334 496 317 c 0,24,25
 490 287 490 287 490 269 c 0,26,27
 490 243 490 243 502 217 c 0,28,29
 518 185 518 185 545 185 c 0,30,31
 551 185 551 185 559 188 c 0,32,33
 598 202 598 202 630 257 c 0,34,35
 672 328 672 328 672 426 c 0,36,37
 672 544 672 544 600.5 615.5 c 128,-1,38
 529 687 529 687 417 687 c 0,39,40
 300 687 300 687 210 595 c 0,41,42
 115 498 115 498 115 361 c 0,43,44
 115 234 115 234 203 132 c 128,-1,45
 291 30 291 30 405 30 c 0,46,47
 479 30 479 30 553 68 c 128,-1,48
 627 106 627 106 672 166 c 1,49,-1
 694 135 l 1,50,51
 634 60 634 60 561.5 23.5 c 128,-1,52
 489 -13 489 -13 405 -13 c 0,53,54
 257 -13 257 -13 157.5 93.5 c 128,-1,55
 58 200 58 200 58 361 c 0,56,57
 58 518 58 518 179 629 c 0,58,59
 293 733 293 733 432 733 c 0,60,61
 557 733 557 733 636.5 647.5 c 128,-1,62
 716 562 716 562 716 430 c 0,63,64
 716 324 716 324 666.5 239 c 128,-1,65
 617 154 617 154 553 145 c 0,0,1
472 426 m 0,66,67
 474 435 474 435 474.5 448 c 128,-1,68
 475 461 475 461 476 469 c 1,69,70
 476 516 476 516 453 535 c 0,71,72
 436 549 436 549 405 549 c 1,73,74
 366 546 366 546 326 476 c 0,75,76
 282 400 282 400 282 312 c 0,77,78
 282 249 282 249 298 222 c 128,-1,79
 314 195 314 195 345 195 c 1,80,81
 377 192 377 192 397 210 c 0,82,83
 421 232 421 232 445 296 c 1,84,85
 449 311 449 311 465 392 c 0,86,87
 467 405 467 405 472 426 c 0,66,67
EndSplineSet
EndChar

StartChar: A
Encoding: 65 65 36
Width: 495
Flags: W
LayerCount: 2
Fore
SplineSet
453 371 m 1,0,-1
 367 421 l 1,1,-1
 367 619 l 1,2,-1
 453 706 l 1,3,-1
 453 371 l 1,0,-1
439 720 m 1,4,-1
 353 634 l 1,5,-1
 144 634 l 1,6,-1
 57 720 l 1,7,-1
 439 720 l 1,4,-1
129 421 m 1,8,-1
 43 371 l 1,9,-1
 43 706 l 1,10,-1
 129 619 l 1,11,-1
 129 421 l 1,8,-1
434 360 m 1,12,-1
 353 320 l 1,13,-1
 144 320 l 1,14,-1
 63 360 l 1,15,-1
 144 407 l 1,16,-1
 353 407 l 1,17,-1
 434 360 l 1,12,-1
453 0 m 1,18,-1
 367 86 l 1,19,-1
 367 306 l 1,20,-1
 453 349 l 1,21,-1
 453 0 l 1,18,-1
129 86 m 1,22,-1
 43 0 l 1,23,-1
 43 349 l 1,24,-1
 129 306 l 1,25,-1
 129 86 l 1,22,-1
EndSplineSet
EndChar

StartChar: B
Encoding: 66 66 37
Width: 495
Flags: W
LayerCount: 2
Fore
SplineSet
453 371 m 1,0,-1
 367 421 l 1,1,-1
 367 619 l 1,2,-1
 410 662 l 1,3,-1
 453 619 l 1,4,-1
 453 371 l 1,0,-1
397 676 m 1,5,-1
 353 634 l 1,6,-1
 144 634 l 1,7,-1
 57 720 l 1,8,-1
 353 720 l 1,9,-1
 397 676 l 1,5,-1
129 421 m 1,10,-1
 43 371 l 1,11,-1
 43 706 l 1,12,-1
 129 619 l 1,13,-1
 129 421 l 1,10,-1
453 101 m 1,14,-1
 410 58 l 1,15,-1
 367 101 l 1,16,-1
 367 306 l 1,17,-1
 453 349 l 1,18,-1
 453 101 l 1,14,-1
434 360 m 1,19,-1
 353 320 l 1,20,-1
 144 320 l 1,21,-1
 63 360 l 1,22,-1
 144 407 l 1,23,-1
 353 407 l 1,24,-1
 434 360 l 1,19,-1
129 101 m 1,25,-1
 43 14 l 1,26,-1
 43 349 l 1,27,-1
 129 306 l 1,28,-1
 129 101 l 1,25,-1
397 44 m 1,29,-1
 353 0 l 1,30,-1
 57 0 l 1,31,-1
 144 86 l 1,32,-1
 353 86 l 1,33,-1
 397 44 l 1,29,-1
EndSplineSet
EndChar

StartChar: C
Encoding: 67 67 38
Width: 445
Flags: W
LayerCount: 2
Fore
SplineSet
439 720 m 1,0,-1
 353 634 l 1,1,-1
 144 634 l 1,2,-1
 100 676 l 1,3,-1
 144 720 l 1,4,-1
 439 720 l 1,0,-1
129 414 m 1,5,-1
 43 371 l 1,6,-1
 43 619 l 1,7,-1
 86 662 l 1,8,-1
 129 619 l 1,9,-1
 129 414 l 1,5,-1
439 0 m 1,10,-1
 144 0 l 1,11,-1
 100 44 l 1,12,-1
 144 86 l 1,13,-1
 353 86 l 1,14,-1
 439 0 l 1,10,-1
129 101 m 1,15,-1
 86 58 l 1,16,-1
 43 101 l 1,17,-1
 43 349 l 1,18,-1
 129 299 l 1,19,-1
 129 101 l 1,15,-1
EndSplineSet
EndChar

StartChar: D
Encoding: 68 68 39
Width: 495
Flags: W
LayerCount: 2
Fore
SplineSet
453 371 m 1,0,-1
 367 421 l 1,1,-1
 367 619 l 1,2,-1
 410 662 l 1,3,-1
 453 619 l 1,4,-1
 453 371 l 1,0,-1
397 676 m 1,5,-1
 353 634 l 1,6,-1
 144 634 l 1,7,-1
 57 720 l 1,8,-1
 353 720 l 1,9,-1
 397 676 l 1,5,-1
129 421 m 1,10,-1
 43 371 l 1,11,-1
 43 706 l 1,12,-1
 129 619 l 1,13,-1
 129 421 l 1,10,-1
453 101 m 1,14,-1
 410 58 l 1,15,-1
 367 101 l 1,16,-1
 367 306 l 1,17,-1
 453 349 l 1,18,-1
 453 101 l 1,14,-1
129 101 m 1,19,-1
 43 14 l 1,20,-1
 43 349 l 1,21,-1
 129 306 l 1,22,-1
 129 101 l 1,19,-1
397 44 m 1,23,-1
 353 0 l 1,24,-1
 57 0 l 1,25,-1
 144 86 l 1,26,-1
 353 86 l 1,27,-1
 397 44 l 1,23,-1
EndSplineSet
EndChar

StartChar: E
Encoding: 69 69 40
Width: 445
Flags: W
LayerCount: 2
Fore
SplineSet
439 720 m 1,0,-1
 353 634 l 1,1,-1
 144 634 l 1,2,-1
 57 720 l 1,3,-1
 439 720 l 1,0,-1
129 421 m 1,4,-1
 43 371 l 1,5,-1
 43 706 l 1,6,-1
 129 619 l 1,7,-1
 129 421 l 1,4,-1
434 360 m 1,8,-1
 353 320 l 1,9,-1
 144 320 l 1,10,-1
 63 360 l 1,11,-1
 144 407 l 1,12,-1
 353 407 l 1,13,-1
 434 360 l 1,8,-1
439 0 m 1,14,-1
 57 0 l 1,15,-1
 144 86 l 1,16,-1
 353 86 l 1,17,-1
 439 0 l 1,14,-1
129 101 m 1,18,-1
 43 14 l 1,19,-1
 43 349 l 1,20,-1
 129 306 l 1,21,-1
 129 101 l 1,18,-1
EndSplineSet
EndChar

StartChar: F
Encoding: 70 70 41
Width: 438
Flags: W
LayerCount: 2
Fore
SplineSet
439 720 m 1,0,-1
 353 634 l 1,1,-1
 144 634 l 1,2,-1
 57 720 l 1,3,-1
 439 720 l 1,0,-1
129 421 m 1,4,-1
 43 371 l 1,5,-1
 43 706 l 1,6,-1
 129 619 l 1,7,-1
 129 421 l 1,4,-1
434 360 m 1,8,-1
 353 320 l 1,9,-1
 144 320 l 1,10,-1
 63 360 l 1,11,-1
 144 407 l 1,12,-1
 353 407 l 1,13,-1
 434 360 l 1,8,-1
129 86 m 1,14,-1
 43 0 l 1,15,-1
 43 349 l 1,16,-1
 129 306 l 1,17,-1
 129 86 l 1,14,-1
EndSplineSet
EndChar

StartChar: G
Encoding: 71 71 42
Width: 495
Flags: W
LayerCount: 2
Fore
SplineSet
435 720 m 1,0,-1
 353 634 l 1,1,-1
 144 634 l 1,2,-1
 100 676 l 1,3,-1
 144 720 l 1,4,-1
 435 720 l 1,0,-1
434 360 m 1,5,-1
 353 320 l 1,6,-1
 273 320 l 1,7,-1
 192 360 l 1,8,-1
 273 407 l 1,9,-1
 353 407 l 1,10,-1
 434 360 l 1,5,-1
453 101 m 1,11,-1
 410 58 l 1,12,-1
 367 101 l 1,13,-1
 367 306 l 1,14,-1
 453 349 l 1,15,-1
 453 101 l 1,11,-1
129 421 m 1,16,-1
 43 371 l 1,17,-1
 43 619 l 1,18,-1
 86 662 l 1,19,-1
 129 619 l 1,20,-1
 129 421 l 1,16,-1
129 101 m 1,21,-1
 86 58 l 1,22,-1
 43 101 l 1,23,-1
 43 349 l 1,24,-1
 129 306 l 1,25,-1
 129 101 l 1,21,-1
397 44 m 1,26,-1
 353 0 l 1,27,-1
 144 0 l 1,28,-1
 100 44 l 1,29,-1
 144 86 l 1,30,-1
 353 86 l 1,31,-1
 397 44 l 1,26,-1
EndSplineSet
EndChar

StartChar: H
Encoding: 72 72 43
Width: 495
Flags: W
LayerCount: 2
Fore
SplineSet
453 371 m 1,0,-1
 367 421 l 1,1,-1
 367 634 l 1,2,-1
 453 720 l 1,3,-1
 453 371 l 1,0,-1
129 421 m 1,4,-1
 43 371 l 1,5,-1
 43 720 l 1,6,-1
 129 634 l 1,7,-1
 129 421 l 1,4,-1
434 360 m 1,8,-1
 353 320 l 1,9,-1
 144 320 l 1,10,-1
 63 360 l 1,11,-1
 144 407 l 1,12,-1
 353 407 l 1,13,-1
 434 360 l 1,8,-1
453 0 m 1,14,-1
 367 86 l 1,15,-1
 367 306 l 1,16,-1
 453 349 l 1,17,-1
 453 0 l 1,14,-1
129 86 m 1,18,-1
 43 0 l 1,19,-1
 43 349 l 1,20,-1
 129 306 l 1,21,-1
 129 86 l 1,18,-1
EndSplineSet
EndChar

StartChar: I
Encoding: 73 73 44
Width: 170
Flags: W
LayerCount: 2
Fore
SplineSet
129 371 m 1,0,-1
 43 421 l 1,1,-1
 43 634 l 1,2,-1
 129 720 l 1,3,-1
 129 371 l 1,0,-1
129 0 m 1,4,-1
 43 86 l 1,5,-1
 43 306 l 1,6,-1
 129 349 l 1,7,-1
 129 0 l 1,4,-1
EndSplineSet
EndChar

StartChar: J
Encoding: 74 74 45
Width: 495
Flags: W
LayerCount: 2
Fore
SplineSet
453 371 m 1,0,-1
 367 421 l 1,1,-1
 367 634 l 1,2,-1
 453 720 l 1,3,-1
 453 371 l 1,0,-1
453 14 m 1,4,-1
 367 101 l 1,5,-1
 367 306 l 1,6,-1
 453 349 l 1,7,-1
 453 14 l 1,4,-1
439 0 m 1,8,-1
 57 0 l 1,9,-1
 144 86 l 1,10,-1
 353 86 l 1,11,-1
 439 0 l 1,8,-1
129 101 m 1,12,-1
 43 14 l 1,13,-1
 43 349 l 1,14,-1
 129 306 l 1,15,-1
 129 101 l 1,12,-1
EndSplineSet
EndChar

StartChar: K
Encoding: 75 75 46
Width: 495
Flags: W
LayerCount: 2
Fore
SplineSet
453 661 m 1,0,-1
 208 424 l 1,1,-1
 147 424 l 1,2,-1
 147 486 l 1,3,-1
 390 720 l 1,4,-1
 453 720 l 1,5,-1
 453 661 l 1,0,-1
129 421 m 1,6,-1
 43 371 l 1,7,-1
 43 720 l 1,8,-1
 129 634 l 1,9,-1
 129 421 l 1,6,-1
434 360 m 1,10,-1
 353 320 l 1,11,-1
 144 320 l 1,12,-1
 63 360 l 1,13,-1
 144 407 l 1,14,-1
 353 407 l 1,15,-1
 434 360 l 1,10,-1
453 0 m 1,16,-1
 367 86 l 1,17,-1
 367 306 l 1,18,-1
 453 349 l 1,19,-1
 453 0 l 1,16,-1
129 86 m 1,20,-1
 43 0 l 1,21,-1
 43 349 l 1,22,-1
 129 306 l 1,23,-1
 129 86 l 1,20,-1
EndSplineSet
EndChar

StartChar: L
Encoding: 76 76 47
Width: 480
Flags: W
LayerCount: 2
Fore
SplineSet
129 421 m 1,0,-1
 43 371 l 1,1,-1
 43 720 l 1,2,-1
 129 634 l 1,3,-1
 129 421 l 1,0,-1
453 14 m 1,4,-1
 367 101 l 1,5,-1
 367 306 l 1,6,-1
 453 349 l 1,7,-1
 453 14 l 1,4,-1
439 0 m 1,8,-1
 57 0 l 1,9,-1
 144 86 l 1,10,-1
 353 86 l 1,11,-1
 439 0 l 1,8,-1
129 101 m 1,12,-1
 43 14 l 1,13,-1
 43 349 l 1,14,-1
 129 306 l 1,15,-1
 129 101 l 1,12,-1
EndSplineSet
EndChar

StartChar: M
Encoding: 77 77 48
Width: 820
Flags: W
LayerCount: 2
Fore
SplineSet
777 371 m 1,0,-1
 691 421 l 1,1,-1
 691 619 l 1,2,-1
 777 705 l 1,3,-1
 777 371 l 1,0,-1
763 720 m 1,4,-1
 676 634 l 1,5,-1
 467 634 l 1,6,-1
 410 690 l 1,7,-1
 353 634 l 1,8,-1
 142 634 l 1,9,-1
 57 720 l 1,10,-1
 763 720 l 1,4,-1
453 398 m 1,11,-1
 410 365 l 1,12,-1
 367 398 l 1,13,-1
 367 621 l 1,14,-1
 410 665 l 1,15,-1
 453 619 l 1,16,-1
 453 398 l 1,11,-1
777 0 m 1,17,-1
 691 86 l 1,18,-1
 691 306 l 1,19,-1
 777 349 l 1,20,-1
 777 0 l 1,17,-1
129 421 m 1,21,-1
 43 371 l 1,22,-1
 43 706 l 1,23,-1
 129 619 l 1,24,-1
 129 421 l 1,21,-1
453 72 m 1,25,-1
 410 0 l 1,26,-1
 367 72 l 1,27,-1
 367 310 l 1,28,-1
 410 349 l 1,29,-1
 453 310 l 1,30,-1
 453 72 l 1,25,-1
129 86 m 1,31,-1
 43 0 l 1,32,-1
 43 349 l 1,33,-1
 129 306 l 1,34,-1
 129 86 l 1,31,-1
EndSplineSet
EndChar

StartChar: N
Encoding: 78 78 49
Width: 495
Flags: W
LayerCount: 2
Fore
SplineSet
453 371 m 1,0,-1
 367 421 l 1,1,-1
 367 619 l 1,2,-1
 453 706 l 1,3,-1
 453 371 l 1,0,-1
439 720 m 1,4,-1
 353 634 l 1,5,-1
 144 634 l 1,6,-1
 57 720 l 1,7,-1
 439 720 l 1,4,-1
129 421 m 1,8,-1
 43 371 l 1,9,-1
 43 706 l 1,10,-1
 129 619 l 1,11,-1
 129 421 l 1,8,-1
453 0 m 1,12,-1
 367 86 l 1,13,-1
 367 306 l 1,14,-1
 453 349 l 1,15,-1
 453 0 l 1,12,-1
129 86 m 1,16,-1
 43 0 l 1,17,-1
 43 349 l 1,18,-1
 129 306 l 1,19,-1
 129 86 l 1,16,-1
EndSplineSet
EndChar

StartChar: O
Encoding: 79 79 50
Width: 495
Flags: W
LayerCount: 2
Fore
SplineSet
453 371 m 1,0,-1
 367 421 l 1,1,-1
 367 619 l 1,2,-1
 410 662 l 1,3,-1
 453 619 l 1,4,-1
 453 371 l 1,0,-1
397 676 m 1,5,-1
 353 634 l 1,6,-1
 144 634 l 1,7,-1
 100 676 l 1,8,-1
 144 720 l 1,9,-1
 353 720 l 1,10,-1
 397 676 l 1,5,-1
453 101 m 1,11,-1
 410 58 l 1,12,-1
 367 101 l 1,13,-1
 367 306 l 1,14,-1
 453 349 l 1,15,-1
 453 101 l 1,11,-1
129 421 m 1,16,-1
 43 371 l 1,17,-1
 43 619 l 1,18,-1
 86 662 l 1,19,-1
 129 619 l 1,20,-1
 129 421 l 1,16,-1
129 101 m 1,21,-1
 86 58 l 1,22,-1
 43 101 l 1,23,-1
 43 349 l 1,24,-1
 129 306 l 1,25,-1
 129 101 l 1,21,-1
397 44 m 1,26,-1
 353 0 l 1,27,-1
 144 0 l 1,28,-1
 100 44 l 1,29,-1
 144 86 l 1,30,-1
 353 86 l 1,31,-1
 397 44 l 1,26,-1
EndSplineSet
EndChar

StartChar: P
Encoding: 80 80 51
Width: 495
Flags: W
LayerCount: 2
Fore
SplineSet
453 371 m 1,0,-1
 367 421 l 1,1,-1
 367 619 l 1,2,-1
 410 662 l 1,3,-1
 453 619 l 1,4,-1
 453 371 l 1,0,-1
397 676 m 1,5,-1
 353 634 l 1,6,-1
 144 634 l 1,7,-1
 57 720 l 1,8,-1
 353 720 l 1,9,-1
 397 676 l 1,5,-1
129 421 m 1,10,-1
 43 371 l 1,11,-1
 43 706 l 1,12,-1
 129 619 l 1,13,-1
 129 421 l 1,10,-1
434 360 m 1,14,-1
 353 320 l 1,15,-1
 144 320 l 1,16,-1
 63 360 l 1,17,-1
 144 407 l 1,18,-1
 353 407 l 1,19,-1
 434 360 l 1,14,-1
129 86 m 1,20,-1
 43 0 l 1,21,-1
 43 349 l 1,22,-1
 129 306 l 1,23,-1
 129 86 l 1,20,-1
EndSplineSet
EndChar

StartChar: Q
Encoding: 81 81 52
Width: 497
Flags: W
LayerCount: 2
Fore
SplineSet
453 371 m 1,0,-1
 367 421 l 1,1,-1
 367 619 l 1,2,-1
 410 662 l 1,3,-1
 453 619 l 1,4,-1
 453 371 l 1,0,-1
397 676 m 1,5,-1
 353 634 l 1,6,-1
 144 634 l 1,7,-1
 100 676 l 1,8,-1
 144 720 l 1,9,-1
 353 720 l 1,10,-1
 397 676 l 1,5,-1
453 101 m 1,11,-1
 410 58 l 1,12,-1
 367 101 l 1,13,-1
 367 306 l 1,14,-1
 453 349 l 1,15,-1
 453 101 l 1,11,-1
129 421 m 1,16,-1
 43 371 l 1,17,-1
 43 619 l 1,18,-1
 86 662 l 1,19,-1
 129 619 l 1,20,-1
 129 421 l 1,16,-1
455 -128 m 1,21,-1
 232 86 l 1,22,-1
 351 86 l 1,23,-1
 455 -12 l 1,24,-1
 455 -128 l 1,21,-1
129 101 m 1,25,-1
 86 58 l 1,26,-1
 43 101 l 1,27,-1
 43 349 l 1,28,-1
 129 306 l 1,29,-1
 129 101 l 1,25,-1
294 0 m 1,30,-1
 144 0 l 1,31,-1
 101 47 l 1,32,-1
 144 86 l 1,33,-1
 205 86 l 1,34,-1
 294 0 l 1,30,-1
EndSplineSet
EndChar

StartChar: R
Encoding: 82 82 53
Width: 497
Flags: W
LayerCount: 2
Fore
SplineSet
453 371 m 1,0,-1
 367 421 l 1,1,-1
 367 619 l 1,2,-1
 410 662 l 1,3,-1
 453 619 l 1,4,-1
 453 371 l 1,0,-1
397 676 m 1,5,-1
 353 634 l 1,6,-1
 144 634 l 1,7,-1
 57 720 l 1,8,-1
 353 720 l 1,9,-1
 397 676 l 1,5,-1
129 421 m 1,10,-1
 43 371 l 1,11,-1
 43 706 l 1,12,-1
 129 619 l 1,13,-1
 129 421 l 1,10,-1
434 360 m 1,14,-1
 353 320 l 1,15,-1
 144 320 l 1,16,-1
 63 360 l 1,17,-1
 144 407 l 1,18,-1
 353 407 l 1,19,-1
 434 360 l 1,14,-1
516 -1 m 1,20,-1
 366 100 l 1,21,-1
 262 306 l 1,22,-1
 359 306 l 1,23,-1
 516 -1 l 1,20,-1
129 101 m 1,24,-1
 43 14 l 1,25,-1
 43 349 l 1,26,-1
 129 306 l 1,27,-1
 129 101 l 1,24,-1
EndSplineSet
EndChar

StartChar: S
Encoding: 83 83 54
Width: 495
Flags: W
LayerCount: 2
Fore
SplineSet
453 720 m 1,0,-1
 360 634 l 1,1,-1
 144 634 l 1,2,-1
 100 676 l 1,3,-1
 144 720 l 1,4,-1
 453 720 l 1,0,-1
453 101 m 1,5,-1
 410 58 l 1,6,-1
 367 101 l 1,7,-1
 367 306 l 1,8,-1
 453 349 l 1,9,-1
 453 101 l 1,5,-1
434 360 m 1,10,-1
 353 320 l 1,11,-1
 144 320 l 1,12,-1
 63 360 l 1,13,-1
 144 407 l 1,14,-1
 353 407 l 1,15,-1
 434 360 l 1,10,-1
129 421 m 1,16,-1
 43 371 l 1,17,-1
 43 619 l 1,18,-1
 86 662 l 1,19,-1
 129 619 l 1,20,-1
 129 421 l 1,16,-1
397 44 m 1,21,-1
 353 0 l 1,22,-1
 43 0 l 1,23,-1
 137 86 l 1,24,-1
 353 86 l 1,25,-1
 397 44 l 1,21,-1
EndSplineSet
EndChar

StartChar: T
Encoding: 84 84 55
Width: 410
Flags: W
LayerCount: 2
Fore
SplineSet
418 720 m 1,0,-1
 349 634 l 1,1,-1
 256 634 l 1,2,-1
 207 684 l 1,3,-1
 155 634 l 1,4,-1
 61 634 l 1,5,-1
 -7 720 l 1,6,-1
 418 720 l 1,0,-1
249 404 m 1,7,-1
 206 362 l 1,8,-1
 162 404 l 1,9,-1
 162 616 l 1,10,-1
 206 663 l 1,11,-1
 249 616 l 1,12,-1
 249 404 l 1,7,-1
249 47 m 1,13,-1
 205 0 l 1,14,-1
 161 47 l 1,15,-1
 161 305 l 1,16,-1
 206 351 l 1,17,-1
 249 305 l 1,18,-1
 249 47 l 1,13,-1
EndSplineSet
EndChar

StartChar: U
Encoding: 85 85 56
Width: 495
Flags: W
LayerCount: 2
Fore
SplineSet
453 371 m 1,0,-1
 367 421 l 1,1,-1
 367 637 l 1,2,-1
 453 720 l 1,3,-1
 453 371 l 1,0,-1
129 421 m 1,4,-1
 43 371 l 1,5,-1
 43 720 l 1,6,-1
 129 637 l 1,7,-1
 129 421 l 1,4,-1
453 101 m 1,8,-1
 410 58 l 1,9,-1
 367 101 l 1,10,-1
 367 306 l 1,11,-1
 453 349 l 1,12,-1
 453 101 l 1,8,-1
129 101 m 1,13,-1
 86 58 l 1,14,-1
 43 101 l 1,15,-1
 43 349 l 1,16,-1
 129 306 l 1,17,-1
 129 101 l 1,13,-1
397 44 m 1,18,-1
 353 0 l 1,19,-1
 144 0 l 1,20,-1
 100 44 l 1,21,-1
 144 86 l 1,22,-1
 353 86 l 1,23,-1
 397 44 l 1,18,-1
EndSplineSet
EndChar

StartChar: V
Encoding: 86 86 57
Width: 497
Flags: W
LayerCount: 2
Fore
SplineSet
453 371 m 1,0,-1
 367 421 l 1,1,-1
 367 619 l 1,2,-1
 453 706 l 1,3,-1
 453 371 l 1,0,-1
129 421 m 1,4,-1
 43 371 l 1,5,-1
 43 706 l 1,6,-1
 129 619 l 1,7,-1
 129 421 l 1,4,-1
455 358 m 1,8,-1
 260 0 l 1,9,-1
 260 180 l 1,10,-1
 342 329 l 1,11,-1
 455 358 l 1,8,-1
238 -1 m 1,12,-1
 43 359 l 1,13,-1
 156 329 l 1,14,-1
 238 180 l 1,15,-1
 238 -1 l 1,12,-1
EndSplineSet
EndChar

StartChar: W
Encoding: 87 87 58
Width: 820
Flags: W
LayerCount: 2
Fore
SplineSet
778 371 m 1,0,-1
 691 414 l 1,1,-1
 691 634 l 1,2,-1
 778 720 l 1,3,-1
 778 371 l 1,0,-1
454 410 m 1,4,-1
 410 371 l 1,5,-1
 367 410 l 1,6,-1
 367 648 l 1,7,-1
 410 720 l 1,8,-1
 454 648 l 1,9,-1
 454 410 l 1,4,-1
778 99 m 1,10,-1
 737 57 l 1,11,-1
 692 99 l 1,12,-1
 692 299 l 1,13,-1
 778 352 l 1,14,-1
 778 99 l 1,10,-1
130 414 m 1,15,-1
 43 371 l 1,16,-1
 43 720 l 1,17,-1
 130 634 l 1,18,-1
 130 414 l 1,15,-1
454 99 m 1,19,-1
 411 55 l 1,20,-1
 367 101 l 1,21,-1
 367 322 l 1,22,-1
 410 355 l 1,23,-1
 454 322 l 1,24,-1
 454 99 l 1,19,-1
722 43 m 1,25,-1
 679 0 l 1,26,-1
 143 0 l 1,27,-1
 101 41 l 1,28,-1
 144 86 l 1,29,-1
 353 86 l 1,30,-1
 410 28 l 1,31,-1
 468 86 l 1,32,-1
 678 86 l 1,33,-1
 722 43 l 1,25,-1
129 99 m 1,34,-1
 86 56 l 1,35,-1
 43 99 l 1,36,-1
 43 352 l 1,37,-1
 129 298 l 1,38,-1
 129 99 l 1,34,-1
EndSplineSet
EndChar

StartChar: X
Encoding: 88 88 59
Width: 436
Flags: W
LayerCount: 2
Fore
SplineSet
415 649 m 1,0,-1
 274 370 l 1,1,-1
 229 370 l 1,2,-1
 229 470 l 1,3,-1
 355 720 l 1,4,-1
 415 720 l 1,5,-1
 415 649 l 1,0,-1
209 370 m 1,6,-1
 164 370 l 1,7,-1
 22 652 l 1,8,-1
 22 720 l 1,9,-1
 84 720 l 1,10,-1
 209 470 l 1,11,-1
 209 370 l 1,6,-1
415 0 m 1,12,-1
 353 0 l 1,13,-1
 229 248 l 1,14,-1
 229 350 l 1,15,-1
 274 350 l 1,16,-1
 415 71 l 1,17,-1
 415 0 l 1,12,-1
209 248 m 1,18,-1
 83 0 l 1,19,-1
 22 0 l 1,20,-1
 22 73 l 1,21,-1
 164 350 l 1,22,-1
 209 350 l 1,23,-1
 209 248 l 1,18,-1
EndSplineSet
EndChar

StartChar: Y
Encoding: 89 89 60
Width: 495
Flags: W
LayerCount: 2
Fore
SplineSet
453 371 m 1,0,-1
 367 421 l 1,1,-1
 367 634 l 1,2,-1
 453 720 l 1,3,-1
 453 371 l 1,0,-1
129 421 m 1,4,-1
 43 371 l 1,5,-1
 43 720 l 1,6,-1
 129 634 l 1,7,-1
 129 421 l 1,4,-1
434 360 m 1,8,-1
 353 320 l 1,9,-1
 144 320 l 1,10,-1
 63 360 l 1,11,-1
 144 407 l 1,12,-1
 353 407 l 1,13,-1
 434 360 l 1,8,-1
294 50 m 1,14,-1
 248 0 l 1,15,-1
 206 50 l 1,16,-1
 206 301 l 1,17,-1
 294 301 l 1,18,-1
 294 50 l 1,14,-1
EndSplineSet
EndChar

StartChar: Z
Encoding: 90 90 61
Width: 422
Flags: W
LayerCount: 2
Fore
SplineSet
416 720 m 1,0,-1
 262 365 l 1,1,-1
 206 456 l 1,2,-1
 322 720 l 1,3,-1
 416 720 l 1,0,-1
303 720 m 1,4,-1
 266 634 l 1,5,-1
 109 634 l 1,6,-1
 23 720 l 1,7,-1
 303 720 l 1,4,-1
256 350 m 1,8,-1
 101 0 l 1,9,-1
 7 0 l 1,10,-1
 154 330 l 1,11,-1
 256 350 l 1,8,-1
399 0 m 1,12,-1
 118 0 l 1,13,-1
 160 86 l 1,14,-1
 312 86 l 1,15,-1
 399 0 l 1,12,-1
EndSplineSet
EndChar

StartChar: bracketleft
Encoding: 91 91 62
Width: 265
Flags: W
LayerCount: 2
Fore
SplineSet
259 720 m 1,0,-1
 173 634 l 1,1,-1
 144 634 l 1,2,-1
 57 720 l 1,3,-1
 259 720 l 1,0,-1
129 421 m 1,4,-1
 43 371 l 1,5,-1
 43 706 l 1,6,-1
 129 619 l 1,7,-1
 129 421 l 1,4,-1
129 101 m 1,8,-1
 43 14 l 1,9,-1
 43 349 l 1,10,-1
 129 306 l 1,11,-1
 129 101 l 1,8,-1
259 0 m 1,12,-1
 57 0 l 1,13,-1
 144 86 l 1,14,-1
 173 86 l 1,15,-1
 259 0 l 1,12,-1
EndSplineSet
EndChar

StartChar: backslash
Encoding: 92 92 63
Width: 288
Flags: W
LayerCount: 2
Fore
SplineSet
239 0 m 1,0,-1
 176 0 l 1,1,-1
 50 720 l 1,2,-1
 113 720 l 1,3,-1
 239 0 l 1,0,-1
EndSplineSet
EndChar

StartChar: bracketright
Encoding: 93 93 64
Width: 265
Flags: W
LayerCount: 2
Fore
SplineSet
209 720 m 1,0,-1
 122 634 l 1,1,-1
 93 634 l 1,2,-1
 7 720 l 1,3,-1
 209 720 l 1,0,-1
223 371 m 1,4,-1
 137 414 l 1,5,-1
 137 619 l 1,6,-1
 223 706 l 1,7,-1
 223 371 l 1,4,-1
223 14 m 1,8,-1
 137 101 l 1,9,-1
 137 299 l 1,10,-1
 223 349 l 1,11,-1
 223 14 l 1,8,-1
209 0 m 1,12,-1
 7 0 l 1,13,-1
 93 86 l 1,14,-1
 122 86 l 1,15,-1
 209 0 l 1,12,-1
EndSplineSet
EndChar

StartChar: asciicircum
Encoding: 94 94 65
Width: 575
Flags: W
LayerCount: 2
Fore
SplineSet
527 174 m 1,0,-1
 455 174 l 1,1,-1
 288 477 l 1,2,-1
 122 174 l 1,3,-1
 50 174 l 1,4,-1
 288 595 l 1,5,-1
 527 174 l 1,0,-1
EndSplineSet
EndChar

StartChar: underscore
Encoding: 95 95 66
Width: 459
Flags: W
LayerCount: 2
Fore
SplineSet
410 -27 m 1,0,-1
 50 -27 l 1,1,-1
 50 0 l 1,2,-1
 410 0 l 1,3,-1
 410 -27 l 1,0,-1
EndSplineSet
EndChar

StartChar: grave
Encoding: 96 96 67
Width: 158
Flags: W
LayerCount: 2
Fore
SplineSet
159 362 m 1,0,-1
 65 362 l 1,1,-1
 0 506 l 1,2,-1
 94 506 l 1,3,-1
 159 362 l 1,0,-1
EndSplineSet
EndChar

StartChar: a
Encoding: 97 97 68
Width: 495
Flags: W
LayerCount: 2
Fore
SplineSet
453 371 m 1,0,-1
 367 421 l 1,1,-1
 367 619 l 1,2,-1
 453 706 l 1,3,-1
 453 371 l 1,0,-1
439 720 m 1,4,-1
 353 634 l 1,5,-1
 144 634 l 1,6,-1
 57 720 l 1,7,-1
 439 720 l 1,4,-1
129 421 m 1,8,-1
 43 371 l 1,9,-1
 43 706 l 1,10,-1
 129 619 l 1,11,-1
 129 421 l 1,8,-1
434 360 m 1,12,-1
 353 320 l 1,13,-1
 144 320 l 1,14,-1
 63 360 l 1,15,-1
 144 407 l 1,16,-1
 353 407 l 1,17,-1
 434 360 l 1,12,-1
453 0 m 1,18,-1
 367 86 l 1,19,-1
 367 306 l 1,20,-1
 453 349 l 1,21,-1
 453 0 l 1,18,-1
129 86 m 1,22,-1
 43 0 l 1,23,-1
 43 349 l 1,24,-1
 129 306 l 1,25,-1
 129 86 l 1,22,-1
EndSplineSet
EndChar

StartChar: b
Encoding: 98 98 69
Width: 495
Flags: W
LayerCount: 2
Fore
SplineSet
453 371 m 1,0,-1
 367 421 l 1,1,-1
 367 619 l 1,2,-1
 410 662 l 1,3,-1
 453 619 l 1,4,-1
 453 371 l 1,0,-1
397 676 m 1,5,-1
 353 634 l 1,6,-1
 144 634 l 1,7,-1
 57 720 l 1,8,-1
 353 720 l 1,9,-1
 397 676 l 1,5,-1
129 421 m 1,10,-1
 43 371 l 1,11,-1
 43 706 l 1,12,-1
 129 619 l 1,13,-1
 129 421 l 1,10,-1
453 101 m 1,14,-1
 410 58 l 1,15,-1
 367 101 l 1,16,-1
 367 306 l 1,17,-1
 453 349 l 1,18,-1
 453 101 l 1,14,-1
434 360 m 1,19,-1
 353 320 l 1,20,-1
 144 320 l 1,21,-1
 63 360 l 1,22,-1
 144 407 l 1,23,-1
 353 407 l 1,24,-1
 434 360 l 1,19,-1
129 101 m 1,25,-1
 43 14 l 1,26,-1
 43 349 l 1,27,-1
 129 306 l 1,28,-1
 129 101 l 1,25,-1
397 44 m 1,29,-1
 353 0 l 1,30,-1
 57 0 l 1,31,-1
 144 86 l 1,32,-1
 353 86 l 1,33,-1
 397 44 l 1,29,-1
EndSplineSet
EndChar

StartChar: c
Encoding: 99 99 70
Width: 445
Flags: W
LayerCount: 2
Fore
SplineSet
439 720 m 1,0,-1
 353 634 l 1,1,-1
 144 634 l 1,2,-1
 100 676 l 1,3,-1
 144 720 l 1,4,-1
 439 720 l 1,0,-1
129 414 m 1,5,-1
 43 371 l 1,6,-1
 43 619 l 1,7,-1
 86 662 l 1,8,-1
 129 619 l 1,9,-1
 129 414 l 1,5,-1
439 0 m 1,10,-1
 144 0 l 1,11,-1
 100 44 l 1,12,-1
 144 86 l 1,13,-1
 353 86 l 1,14,-1
 439 0 l 1,10,-1
129 101 m 1,15,-1
 86 58 l 1,16,-1
 43 101 l 1,17,-1
 43 349 l 1,18,-1
 129 299 l 1,19,-1
 129 101 l 1,15,-1
EndSplineSet
EndChar

StartChar: d
Encoding: 100 100 71
Width: 495
Flags: W
LayerCount: 2
Fore
SplineSet
453 371 m 1,0,-1
 367 421 l 1,1,-1
 367 619 l 1,2,-1
 410 662 l 1,3,-1
 453 619 l 1,4,-1
 453 371 l 1,0,-1
397 676 m 1,5,-1
 353 634 l 1,6,-1
 144 634 l 1,7,-1
 57 720 l 1,8,-1
 353 720 l 1,9,-1
 397 676 l 1,5,-1
129 421 m 1,10,-1
 43 371 l 1,11,-1
 43 706 l 1,12,-1
 129 619 l 1,13,-1
 129 421 l 1,10,-1
453 101 m 1,14,-1
 410 58 l 1,15,-1
 367 101 l 1,16,-1
 367 306 l 1,17,-1
 453 349 l 1,18,-1
 453 101 l 1,14,-1
129 101 m 1,19,-1
 43 14 l 1,20,-1
 43 349 l 1,21,-1
 129 306 l 1,22,-1
 129 101 l 1,19,-1
397 44 m 1,23,-1
 353 0 l 1,24,-1
 57 0 l 1,25,-1
 144 86 l 1,26,-1
 353 86 l 1,27,-1
 397 44 l 1,23,-1
EndSplineSet
EndChar

StartChar: e
Encoding: 101 101 72
Width: 445
Flags: W
LayerCount: 2
Fore
SplineSet
439 720 m 1,0,-1
 353 634 l 1,1,-1
 144 634 l 1,2,-1
 57 720 l 1,3,-1
 439 720 l 1,0,-1
129 421 m 1,4,-1
 43 371 l 1,5,-1
 43 706 l 1,6,-1
 129 619 l 1,7,-1
 129 421 l 1,4,-1
434 360 m 1,8,-1
 353 320 l 1,9,-1
 144 320 l 1,10,-1
 63 360 l 1,11,-1
 144 407 l 1,12,-1
 353 407 l 1,13,-1
 434 360 l 1,8,-1
439 0 m 1,14,-1
 57 0 l 1,15,-1
 144 86 l 1,16,-1
 353 86 l 1,17,-1
 439 0 l 1,14,-1
129 101 m 1,18,-1
 43 14 l 1,19,-1
 43 349 l 1,20,-1
 129 306 l 1,21,-1
 129 101 l 1,18,-1
EndSplineSet
EndChar

StartChar: f
Encoding: 102 102 73
Width: 438
Flags: W
LayerCount: 2
Fore
SplineSet
439 720 m 1,0,-1
 353 634 l 1,1,-1
 144 634 l 1,2,-1
 57 720 l 1,3,-1
 439 720 l 1,0,-1
129 421 m 1,4,-1
 43 371 l 1,5,-1
 43 706 l 1,6,-1
 129 619 l 1,7,-1
 129 421 l 1,4,-1
434 360 m 1,8,-1
 353 320 l 1,9,-1
 144 320 l 1,10,-1
 63 360 l 1,11,-1
 144 407 l 1,12,-1
 353 407 l 1,13,-1
 434 360 l 1,8,-1
129 86 m 1,14,-1
 43 0 l 1,15,-1
 43 349 l 1,16,-1
 129 306 l 1,17,-1
 129 86 l 1,14,-1
EndSplineSet
EndChar

StartChar: g
Encoding: 103 103 74
Width: 495
Flags: W
LayerCount: 2
Fore
SplineSet
435 720 m 1,0,-1
 353 634 l 1,1,-1
 144 634 l 1,2,-1
 100 676 l 1,3,-1
 144 720 l 1,4,-1
 435 720 l 1,0,-1
434 360 m 1,5,-1
 353 320 l 1,6,-1
 273 320 l 1,7,-1
 192 360 l 1,8,-1
 273 407 l 1,9,-1
 353 407 l 1,10,-1
 434 360 l 1,5,-1
453 101 m 1,11,-1
 410 58 l 1,12,-1
 367 101 l 1,13,-1
 367 306 l 1,14,-1
 453 349 l 1,15,-1
 453 101 l 1,11,-1
129 421 m 1,16,-1
 43 371 l 1,17,-1
 43 619 l 1,18,-1
 86 662 l 1,19,-1
 129 619 l 1,20,-1
 129 421 l 1,16,-1
129 101 m 1,21,-1
 86 58 l 1,22,-1
 43 101 l 1,23,-1
 43 349 l 1,24,-1
 129 306 l 1,25,-1
 129 101 l 1,21,-1
397 44 m 1,26,-1
 353 0 l 1,27,-1
 144 0 l 1,28,-1
 100 44 l 1,29,-1
 144 86 l 1,30,-1
 353 86 l 1,31,-1
 397 44 l 1,26,-1
EndSplineSet
EndChar

StartChar: h
Encoding: 104 104 75
Width: 495
Flags: W
LayerCount: 2
Fore
SplineSet
453 371 m 1,0,-1
 367 421 l 1,1,-1
 367 634 l 1,2,-1
 453 720 l 1,3,-1
 453 371 l 1,0,-1
129 421 m 1,4,-1
 43 371 l 1,5,-1
 43 720 l 1,6,-1
 129 634 l 1,7,-1
 129 421 l 1,4,-1
434 360 m 1,8,-1
 353 320 l 1,9,-1
 144 320 l 1,10,-1
 63 360 l 1,11,-1
 144 407 l 1,12,-1
 353 407 l 1,13,-1
 434 360 l 1,8,-1
453 0 m 1,14,-1
 367 86 l 1,15,-1
 367 306 l 1,16,-1
 453 349 l 1,17,-1
 453 0 l 1,14,-1
129 86 m 1,18,-1
 43 0 l 1,19,-1
 43 349 l 1,20,-1
 129 306 l 1,21,-1
 129 86 l 1,18,-1
EndSplineSet
EndChar

StartChar: i
Encoding: 105 105 76
Width: 170
Flags: W
LayerCount: 2
Fore
SplineSet
129 371 m 1,0,-1
 43 421 l 1,1,-1
 43 634 l 1,2,-1
 129 720 l 1,3,-1
 129 371 l 1,0,-1
129 0 m 1,4,-1
 43 86 l 1,5,-1
 43 306 l 1,6,-1
 129 349 l 1,7,-1
 129 0 l 1,4,-1
EndSplineSet
EndChar

StartChar: j
Encoding: 106 106 77
Width: 495
Flags: W
LayerCount: 2
Fore
SplineSet
453 371 m 1,0,-1
 367 421 l 1,1,-1
 367 634 l 1,2,-1
 453 720 l 1,3,-1
 453 371 l 1,0,-1
453 14 m 1,4,-1
 367 101 l 1,5,-1
 367 306 l 1,6,-1
 453 349 l 1,7,-1
 453 14 l 1,4,-1
439 0 m 1,8,-1
 57 0 l 1,9,-1
 144 86 l 1,10,-1
 353 86 l 1,11,-1
 439 0 l 1,8,-1
129 101 m 1,12,-1
 43 14 l 1,13,-1
 43 349 l 1,14,-1
 129 306 l 1,15,-1
 129 101 l 1,12,-1
EndSplineSet
EndChar

StartChar: k
Encoding: 107 107 78
Width: 495
Flags: W
LayerCount: 2
Fore
SplineSet
453 661 m 1,0,-1
 208 424 l 1,1,-1
 147 424 l 1,2,-1
 147 486 l 1,3,-1
 390 720 l 1,4,-1
 453 720 l 1,5,-1
 453 661 l 1,0,-1
129 421 m 1,6,-1
 43 371 l 1,7,-1
 43 720 l 1,8,-1
 129 634 l 1,9,-1
 129 421 l 1,6,-1
434 360 m 1,10,-1
 353 320 l 1,11,-1
 144 320 l 1,12,-1
 63 360 l 1,13,-1
 144 407 l 1,14,-1
 353 407 l 1,15,-1
 434 360 l 1,10,-1
453 0 m 1,16,-1
 367 86 l 1,17,-1
 367 306 l 1,18,-1
 453 349 l 1,19,-1
 453 0 l 1,16,-1
129 86 m 1,20,-1
 43 0 l 1,21,-1
 43 349 l 1,22,-1
 129 306 l 1,23,-1
 129 86 l 1,20,-1
EndSplineSet
EndChar

StartChar: l
Encoding: 108 108 79
Width: 480
Flags: W
LayerCount: 2
Fore
SplineSet
129 421 m 1,0,-1
 43 371 l 1,1,-1
 43 720 l 1,2,-1
 129 634 l 1,3,-1
 129 421 l 1,0,-1
453 14 m 1,4,-1
 367 101 l 1,5,-1
 367 306 l 1,6,-1
 453 349 l 1,7,-1
 453 14 l 1,4,-1
439 0 m 1,8,-1
 57 0 l 1,9,-1
 144 86 l 1,10,-1
 353 86 l 1,11,-1
 439 0 l 1,8,-1
129 101 m 1,12,-1
 43 14 l 1,13,-1
 43 349 l 1,14,-1
 129 306 l 1,15,-1
 129 101 l 1,12,-1
EndSplineSet
EndChar

StartChar: m
Encoding: 109 109 80
Width: 820
Flags: W
LayerCount: 2
Fore
SplineSet
777 371 m 1,0,-1
 691 421 l 1,1,-1
 691 619 l 1,2,-1
 777 705 l 1,3,-1
 777 371 l 1,0,-1
763 720 m 1,4,-1
 676 634 l 1,5,-1
 467 634 l 1,6,-1
 410 690 l 1,7,-1
 353 634 l 1,8,-1
 142 634 l 1,9,-1
 57 720 l 1,10,-1
 763 720 l 1,4,-1
453 398 m 1,11,-1
 410 365 l 1,12,-1
 367 398 l 1,13,-1
 367 621 l 1,14,-1
 410 665 l 1,15,-1
 453 619 l 1,16,-1
 453 398 l 1,11,-1
777 0 m 1,17,-1
 691 86 l 1,18,-1
 691 306 l 1,19,-1
 777 349 l 1,20,-1
 777 0 l 1,17,-1
129 421 m 1,21,-1
 43 371 l 1,22,-1
 43 706 l 1,23,-1
 129 619 l 1,24,-1
 129 421 l 1,21,-1
453 72 m 1,25,-1
 410 0 l 1,26,-1
 367 72 l 1,27,-1
 367 310 l 1,28,-1
 410 349 l 1,29,-1
 453 310 l 1,30,-1
 453 72 l 1,25,-1
129 86 m 1,31,-1
 43 0 l 1,32,-1
 43 349 l 1,33,-1
 129 306 l 1,34,-1
 129 86 l 1,31,-1
EndSplineSet
EndChar

StartChar: n
Encoding: 110 110 81
Width: 495
Flags: W
LayerCount: 2
Fore
SplineSet
453 371 m 1,0,-1
 367 421 l 1,1,-1
 367 619 l 1,2,-1
 453 706 l 1,3,-1
 453 371 l 1,0,-1
439 720 m 1,4,-1
 353 634 l 1,5,-1
 144 634 l 1,6,-1
 57 720 l 1,7,-1
 439 720 l 1,4,-1
129 421 m 1,8,-1
 43 371 l 1,9,-1
 43 706 l 1,10,-1
 129 619 l 1,11,-1
 129 421 l 1,8,-1
453 0 m 1,12,-1
 367 86 l 1,13,-1
 367 306 l 1,14,-1
 453 349 l 1,15,-1
 453 0 l 1,12,-1
129 86 m 1,16,-1
 43 0 l 1,17,-1
 43 349 l 1,18,-1
 129 306 l 1,19,-1
 129 86 l 1,16,-1
EndSplineSet
EndChar

StartChar: o
Encoding: 111 111 82
Width: 495
Flags: W
LayerCount: 2
Fore
SplineSet
453 371 m 1,0,-1
 367 421 l 1,1,-1
 367 619 l 1,2,-1
 410 662 l 1,3,-1
 453 619 l 1,4,-1
 453 371 l 1,0,-1
397 676 m 1,5,-1
 353 634 l 1,6,-1
 144 634 l 1,7,-1
 100 676 l 1,8,-1
 144 720 l 1,9,-1
 353 720 l 1,10,-1
 397 676 l 1,5,-1
453 101 m 1,11,-1
 410 58 l 1,12,-1
 367 101 l 1,13,-1
 367 306 l 1,14,-1
 453 349 l 1,15,-1
 453 101 l 1,11,-1
129 421 m 1,16,-1
 43 371 l 1,17,-1
 43 619 l 1,18,-1
 86 662 l 1,19,-1
 129 619 l 1,20,-1
 129 421 l 1,16,-1
129 101 m 1,21,-1
 86 58 l 1,22,-1
 43 101 l 1,23,-1
 43 349 l 1,24,-1
 129 306 l 1,25,-1
 129 101 l 1,21,-1
397 44 m 1,26,-1
 353 0 l 1,27,-1
 144 0 l 1,28,-1
 100 44 l 1,29,-1
 144 86 l 1,30,-1
 353 86 l 1,31,-1
 397 44 l 1,26,-1
EndSplineSet
EndChar

StartChar: p
Encoding: 112 112 83
Width: 495
Flags: W
LayerCount: 2
Fore
SplineSet
453 371 m 1,0,-1
 367 421 l 1,1,-1
 367 619 l 1,2,-1
 410 662 l 1,3,-1
 453 619 l 1,4,-1
 453 371 l 1,0,-1
397 676 m 1,5,-1
 353 634 l 1,6,-1
 144 634 l 1,7,-1
 57 720 l 1,8,-1
 353 720 l 1,9,-1
 397 676 l 1,5,-1
129 421 m 1,10,-1
 43 371 l 1,11,-1
 43 706 l 1,12,-1
 129 619 l 1,13,-1
 129 421 l 1,10,-1
434 360 m 1,14,-1
 353 320 l 1,15,-1
 144 320 l 1,16,-1
 63 360 l 1,17,-1
 144 407 l 1,18,-1
 353 407 l 1,19,-1
 434 360 l 1,14,-1
129 86 m 1,20,-1
 43 0 l 1,21,-1
 43 349 l 1,22,-1
 129 306 l 1,23,-1
 129 86 l 1,20,-1
EndSplineSet
EndChar

StartChar: q
Encoding: 113 113 84
Width: 497
Flags: W
LayerCount: 2
Fore
SplineSet
453 371 m 1,0,-1
 367 421 l 1,1,-1
 367 619 l 1,2,-1
 410 662 l 1,3,-1
 453 619 l 1,4,-1
 453 371 l 1,0,-1
397 676 m 1,5,-1
 353 634 l 1,6,-1
 144 634 l 1,7,-1
 100 676 l 1,8,-1
 144 720 l 1,9,-1
 353 720 l 1,10,-1
 397 676 l 1,5,-1
453 101 m 1,11,-1
 410 58 l 1,12,-1
 367 101 l 1,13,-1
 367 306 l 1,14,-1
 453 349 l 1,15,-1
 453 101 l 1,11,-1
129 421 m 1,16,-1
 43 371 l 1,17,-1
 43 619 l 1,18,-1
 86 662 l 1,19,-1
 129 619 l 1,20,-1
 129 421 l 1,16,-1
455 -128 m 1,21,-1
 232 86 l 1,22,-1
 351 86 l 1,23,-1
 455 -12 l 1,24,-1
 455 -128 l 1,21,-1
129 101 m 1,25,-1
 86 58 l 1,26,-1
 43 101 l 1,27,-1
 43 349 l 1,28,-1
 129 306 l 1,29,-1
 129 101 l 1,25,-1
294 0 m 1,30,-1
 144 0 l 1,31,-1
 101 47 l 1,32,-1
 144 86 l 1,33,-1
 205 86 l 1,34,-1
 294 0 l 1,30,-1
EndSplineSet
EndChar

StartChar: r
Encoding: 114 114 85
Width: 497
Flags: W
LayerCount: 2
Fore
SplineSet
453 371 m 1,0,-1
 367 421 l 1,1,-1
 367 619 l 1,2,-1
 410 662 l 1,3,-1
 453 619 l 1,4,-1
 453 371 l 1,0,-1
397 676 m 1,5,-1
 353 634 l 1,6,-1
 144 634 l 1,7,-1
 57 720 l 1,8,-1
 353 720 l 1,9,-1
 397 676 l 1,5,-1
129 421 m 1,10,-1
 43 371 l 1,11,-1
 43 706 l 1,12,-1
 129 619 l 1,13,-1
 129 421 l 1,10,-1
434 360 m 1,14,-1
 353 320 l 1,15,-1
 144 320 l 1,16,-1
 63 360 l 1,17,-1
 144 407 l 1,18,-1
 353 407 l 1,19,-1
 434 360 l 1,14,-1
516 -1 m 1,20,-1
 366 100 l 1,21,-1
 262 306 l 1,22,-1
 359 306 l 1,23,-1
 516 -1 l 1,20,-1
129 101 m 1,24,-1
 43 14 l 1,25,-1
 43 349 l 1,26,-1
 129 306 l 1,27,-1
 129 101 l 1,24,-1
EndSplineSet
EndChar

StartChar: s
Encoding: 115 115 86
Width: 495
Flags: W
LayerCount: 2
Fore
SplineSet
453 720 m 1,0,-1
 360 634 l 1,1,-1
 144 634 l 1,2,-1
 100 676 l 1,3,-1
 144 720 l 1,4,-1
 453 720 l 1,0,-1
453 101 m 1,5,-1
 410 58 l 1,6,-1
 367 101 l 1,7,-1
 367 306 l 1,8,-1
 453 349 l 1,9,-1
 453 101 l 1,5,-1
434 360 m 1,10,-1
 353 320 l 1,11,-1
 144 320 l 1,12,-1
 63 360 l 1,13,-1
 144 407 l 1,14,-1
 353 407 l 1,15,-1
 434 360 l 1,10,-1
129 421 m 1,16,-1
 43 371 l 1,17,-1
 43 619 l 1,18,-1
 86 662 l 1,19,-1
 129 619 l 1,20,-1
 129 421 l 1,16,-1
397 44 m 1,21,-1
 353 0 l 1,22,-1
 43 0 l 1,23,-1
 137 86 l 1,24,-1
 353 86 l 1,25,-1
 397 44 l 1,21,-1
EndSplineSet
EndChar

StartChar: t
Encoding: 116 116 87
Width: 410
Flags: W
LayerCount: 2
Fore
SplineSet
418 720 m 1,0,-1
 349 634 l 1,1,-1
 256 634 l 1,2,-1
 207 684 l 1,3,-1
 155 634 l 1,4,-1
 61 634 l 1,5,-1
 -7 720 l 1,6,-1
 418 720 l 1,0,-1
249 404 m 1,7,-1
 206 362 l 1,8,-1
 162 404 l 1,9,-1
 162 616 l 1,10,-1
 206 663 l 1,11,-1
 249 616 l 1,12,-1
 249 404 l 1,7,-1
249 47 m 1,13,-1
 205 0 l 1,14,-1
 161 47 l 1,15,-1
 161 305 l 1,16,-1
 206 351 l 1,17,-1
 249 305 l 1,18,-1
 249 47 l 1,13,-1
EndSplineSet
EndChar

StartChar: u
Encoding: 117 117 88
Width: 495
Flags: W
LayerCount: 2
Fore
SplineSet
453 371 m 1,0,-1
 367 421 l 1,1,-1
 367 637 l 1,2,-1
 453 720 l 1,3,-1
 453 371 l 1,0,-1
129 421 m 1,4,-1
 43 371 l 1,5,-1
 43 720 l 1,6,-1
 129 637 l 1,7,-1
 129 421 l 1,4,-1
453 101 m 1,8,-1
 410 58 l 1,9,-1
 367 101 l 1,10,-1
 367 306 l 1,11,-1
 453 349 l 1,12,-1
 453 101 l 1,8,-1
129 101 m 1,13,-1
 86 58 l 1,14,-1
 43 101 l 1,15,-1
 43 349 l 1,16,-1
 129 306 l 1,17,-1
 129 101 l 1,13,-1
397 44 m 1,18,-1
 353 0 l 1,19,-1
 144 0 l 1,20,-1
 100 44 l 1,21,-1
 144 86 l 1,22,-1
 353 86 l 1,23,-1
 397 44 l 1,18,-1
EndSplineSet
EndChar

StartChar: v
Encoding: 118 118 89
Width: 497
Flags: W
LayerCount: 2
Fore
SplineSet
453 371 m 1,0,-1
 367 421 l 1,1,-1
 367 619 l 1,2,-1
 453 706 l 1,3,-1
 453 371 l 1,0,-1
129 421 m 1,4,-1
 43 371 l 1,5,-1
 43 706 l 1,6,-1
 129 619 l 1,7,-1
 129 421 l 1,4,-1
455 358 m 1,8,-1
 260 0 l 1,9,-1
 260 180 l 1,10,-1
 342 329 l 1,11,-1
 455 358 l 1,8,-1
238 -1 m 1,12,-1
 43 359 l 1,13,-1
 156 329 l 1,14,-1
 238 180 l 1,15,-1
 238 -1 l 1,12,-1
EndSplineSet
EndChar

StartChar: w
Encoding: 119 119 90
Width: 820
Flags: W
LayerCount: 2
Fore
SplineSet
778 371 m 1,0,-1
 691 414 l 1,1,-1
 691 634 l 1,2,-1
 778 720 l 1,3,-1
 778 371 l 1,0,-1
454 410 m 1,4,-1
 410 371 l 1,5,-1
 367 410 l 1,6,-1
 367 648 l 1,7,-1
 410 720 l 1,8,-1
 454 648 l 1,9,-1
 454 410 l 1,4,-1
778 99 m 1,10,-1
 737 57 l 1,11,-1
 692 99 l 1,12,-1
 692 299 l 1,13,-1
 778 352 l 1,14,-1
 778 99 l 1,10,-1
130 414 m 1,15,-1
 43 371 l 1,16,-1
 43 720 l 1,17,-1
 130 634 l 1,18,-1
 130 414 l 1,15,-1
454 99 m 1,19,-1
 411 55 l 1,20,-1
 367 101 l 1,21,-1
 367 322 l 1,22,-1
 410 355 l 1,23,-1
 454 322 l 1,24,-1
 454 99 l 1,19,-1
722 43 m 1,25,-1
 679 0 l 1,26,-1
 143 0 l 1,27,-1
 101 41 l 1,28,-1
 144 86 l 1,29,-1
 353 86 l 1,30,-1
 410 28 l 1,31,-1
 468 86 l 1,32,-1
 678 86 l 1,33,-1
 722 43 l 1,25,-1
129 99 m 1,34,-1
 86 56 l 1,35,-1
 43 99 l 1,36,-1
 43 352 l 1,37,-1
 129 298 l 1,38,-1
 129 99 l 1,34,-1
EndSplineSet
EndChar

StartChar: x
Encoding: 120 120 91
Width: 436
Flags: W
LayerCount: 2
Fore
SplineSet
415 649 m 1,0,-1
 274 370 l 1,1,-1
 229 370 l 1,2,-1
 229 470 l 1,3,-1
 355 720 l 1,4,-1
 415 720 l 1,5,-1
 415 649 l 1,0,-1
209 370 m 1,6,-1
 164 370 l 1,7,-1
 22 652 l 1,8,-1
 22 720 l 1,9,-1
 84 720 l 1,10,-1
 209 470 l 1,11,-1
 209 370 l 1,6,-1
415 0 m 1,12,-1
 353 0 l 1,13,-1
 229 248 l 1,14,-1
 229 350 l 1,15,-1
 274 350 l 1,16,-1
 415 71 l 1,17,-1
 415 0 l 1,12,-1
209 248 m 1,18,-1
 83 0 l 1,19,-1
 22 0 l 1,20,-1
 22 73 l 1,21,-1
 164 350 l 1,22,-1
 209 350 l 1,23,-1
 209 248 l 1,18,-1
EndSplineSet
EndChar

StartChar: y
Encoding: 121 121 92
Width: 495
Flags: W
LayerCount: 2
Fore
SplineSet
453 371 m 1,0,-1
 367 421 l 1,1,-1
 367 634 l 1,2,-1
 453 720 l 1,3,-1
 453 371 l 1,0,-1
129 421 m 1,4,-1
 43 371 l 1,5,-1
 43 720 l 1,6,-1
 129 634 l 1,7,-1
 129 421 l 1,4,-1
434 360 m 1,8,-1
 353 320 l 1,9,-1
 144 320 l 1,10,-1
 63 360 l 1,11,-1
 144 407 l 1,12,-1
 353 407 l 1,13,-1
 434 360 l 1,8,-1
294 50 m 1,14,-1
 248 0 l 1,15,-1
 206 50 l 1,16,-1
 206 301 l 1,17,-1
 294 301 l 1,18,-1
 294 50 l 1,14,-1
EndSplineSet
EndChar

StartChar: z
Encoding: 122 122 93
Width: 422
Flags: W
LayerCount: 2
Fore
SplineSet
416 720 m 1,0,-1
 262 365 l 1,1,-1
 206 456 l 1,2,-1
 322 720 l 1,3,-1
 416 720 l 1,0,-1
303 720 m 1,4,-1
 266 634 l 1,5,-1
 109 634 l 1,6,-1
 23 720 l 1,7,-1
 303 720 l 1,4,-1
256 350 m 1,8,-1
 101 0 l 1,9,-1
 7 0 l 1,10,-1
 154 330 l 1,11,-1
 256 350 l 1,8,-1
399 0 m 1,12,-1
 118 0 l 1,13,-1
 160 86 l 1,14,-1
 312 86 l 1,15,-1
 399 0 l 1,12,-1
EndSplineSet
EndChar

StartChar: braceleft
Encoding: 123 123 94
Width: 303
Flags: W
LayerCount: 2
Fore
SplineSet
254 -112 m 1,0,-1
 190 -112 l 2,1,2
 112 -112 112 -112 112 -46 c 2,3,-1
 112 289 l 2,4,5
 112 337 112 337 73 354 c 0,6,7
 68 357 68 357 62 358 c 0,8,9
 57 359 57 359 50 360 c 1,10,11
 77 360 77 360 94.5 380.5 c 128,-1,12
 112 401 112 401 112 431 c 2,13,-1
 112 766 l 2,14,15
 112 832 112 832 190 832 c 2,16,-1
 254 832 l 1,17,-1
 254 795 l 1,18,-1
 243 795 l 2,19,20
 208 795 208 795 196 783 c 128,-1,21
 184 771 184 771 184 734 c 2,22,-1
 184 438 l 2,23,24
 184 407 184 407 165 385 c 128,-1,25
 146 363 146 363 117 360 c 1,26,27
 146 357 146 357 165 335 c 128,-1,28
 184 313 184 313 184 282 c 2,29,-1
 184 -14 l 2,30,31
 184 -51 184 -51 195 -63 c 128,-1,32
 206 -75 206 -75 243 -75 c 2,33,-1
 254 -75 l 1,34,-1
 254 -112 l 1,0,-1
EndSplineSet
EndChar

StartChar: bar
Encoding: 124 124 95
Width: 162
Flags: W
LayerCount: 2
Fore
SplineSet
113 0 m 1,0,-1
 50 0 l 1,1,-1
 50 720 l 1,2,-1
 113 720 l 1,3,-1
 113 0 l 1,0,-1
EndSplineSet
EndChar

StartChar: braceright
Encoding: 125 125 96
Width: 303
Flags: W
LayerCount: 2
Fore
SplineSet
254 360 m 1,0,1
 238 358 238 358 231 354 c 0,2,3
 192 336 192 336 192 289 c 2,4,-1
 192 -46 l 2,5,6
 192 -112 192 -112 115 -112 c 2,7,-1
 50 -112 l 1,8,-1
 50 -75 l 1,9,-1
 61 -75 l 2,10,11
 97 -75 97 -75 108.5 -63.5 c 128,-1,12
 120 -52 120 -52 120 -14 c 2,13,-1
 120 282 l 2,14,15
 120 313 120 313 139 335 c 128,-1,16
 158 357 158 357 188 360 c 1,17,18
 173 362 173 362 162 367 c 0,19,20
 120 388 120 388 120 438 c 2,21,-1
 120 734 l 2,22,23
 120 771 120 771 109 783 c 128,-1,24
 98 795 98 795 61 795 c 2,25,-1
 50 795 l 1,26,-1
 50 832 l 1,27,-1
 115 832 l 2,28,29
 153 832 153 832 172.5 815 c 128,-1,30
 192 798 192 798 192 766 c 2,31,-1
 192 431 l 2,32,33
 192 384 192 384 231 366 c 0,34,35
 236 363 236 363 242 362 c 0,36,37
 247 361 247 361 254 360 c 1,0,1
EndSplineSet
EndChar

StartChar: asciitilde
Encoding: 126 126 97
Width: 458
Flags: W
LayerCount: 2
Fore
SplineSet
409 402 m 2,0,1
 409 349 409 349 385 321 c 128,-1,2
 361 293 361 293 319 293 c 0,3,4
 290 293 290 293 260 306 c 2,5,-1
 183 338 l 1,6,-1
 170 342 l 2,7,8
 150 348 150 348 138 348 c 0,9,10
 109 348 109 348 101 302 c 1,11,-1
 100 292 l 1,12,-1
 50 292 l 1,13,-1
 50 309 l 2,14,15
 50 362 50 362 74 390 c 128,-1,16
 98 418 98 418 140 418 c 0,17,18
 169 418 169 418 199 405 c 2,19,-1
 276 373 l 1,20,-1
 288 368 l 1,21,22
 308 362 308 362 320 362 c 0,23,24
 336 362 336 362 344.5 372.5 c 128,-1,25
 353 383 353 383 358 409 c 1,26,-1
 359 418 l 1,27,-1
 409 418 l 1,28,-1
 409 402 l 2,0,1
EndSplineSet
EndChar

StartChar: Ccedilla
Encoding: 199 199 100
Width: 460
Flags: W
LayerCount: 2
Fore
SplineSet
439 720 m 1,0,-1
 353 634 l 1,1,-1
 144 634 l 1,2,-1
 100 676 l 1,3,-1
 144 720 l 1,4,-1
 439 720 l 1,0,-1
129 414 m 1,5,-1
 43 371 l 1,6,-1
 43 619 l 1,7,-1
 86 662 l 1,8,-1
 129 619 l 1,9,-1
 129 414 l 1,5,-1
439 0 m 1,10,-1
 144 0 l 1,11,-1
 100 44 l 1,12,-1
 144 86 l 1,13,-1
 353 86 l 1,14,-1
 439 0 l 1,10,-1
129 101 m 1,15,-1
 86 58 l 1,16,-1
 43 101 l 1,17,-1
 43 349 l 1,18,-1
 129 299 l 1,19,-1
 129 101 l 1,15,-1
303 -25 m 1,20,-1
 245 -98 l 1,21,-1
 153 -98 l 1,22,-1
 211 -25 l 1,23,-1
 303 -25 l 1,20,-1
EndSplineSet
EndChar

StartChar: ccedilla
Encoding: 231 231 111
Width: 460
Flags: W
LayerCount: 2
Fore
SplineSet
439 720 m 1,0,-1
 353 634 l 1,1,-1
 144 634 l 1,2,-1
 100 676 l 1,3,-1
 144 720 l 1,4,-1
 439 720 l 1,0,-1
129 414 m 1,5,-1
 43 371 l 1,6,-1
 43 619 l 1,7,-1
 86 662 l 1,8,-1
 129 619 l 1,9,-1
 129 414 l 1,5,-1
439 0 m 1,10,-1
 144 0 l 1,11,-1
 100 44 l 1,12,-1
 144 86 l 1,13,-1
 353 86 l 1,14,-1
 439 0 l 1,10,-1
129 101 m 1,15,-1
 86 58 l 1,16,-1
 43 101 l 1,17,-1
 43 349 l 1,18,-1
 129 299 l 1,19,-1
 129 101 l 1,15,-1
303 -25 m 1,20,-1
 245 -98 l 1,21,-1
 153 -98 l 1,22,-1
 211 -25 l 1,23,-1
 303 -25 l 1,20,-1
EndSplineSet
EndChar

StartChar: dagger
Encoding: 8224 8224 130
Width: 500
Flags: W
LayerCount: 2
Fore
SplineSet
293 548 m 1,0,-1
 251 503 l 1,1,-1
 207 548 l 1,2,-1
 207 680 l 1,3,-1
 251 720 l 1,4,-1
 293 680 l 1,5,-1
 293 548 l 1,0,-1
480 487 m 1,6,-1
 437 446 l 1,7,-1
 308 446 l 1,8,-1
 269 489 l 1,9,-1
 311 532 l 1,10,-1
 440 532 l 1,11,-1
 480 487 l 1,6,-1
238 490 m 1,12,-1
 192 446 l 1,13,-1
 63 446 l 1,14,-1
 22 486 l 1,15,-1
 64 532 l 1,16,-1
 193 532 l 1,17,-1
 238 490 l 1,12,-1
293 40 m 1,18,-1
 249 0 l 1,19,-1
 207 40 l 1,20,-1
 207 431 l 1,21,-1
 251 475 l 1,22,-1
 293 432 l 1,23,-1
 293 40 l 1,18,-1
EndSplineSet
EndChar

StartChar: degree
Encoding: 176 176 131
Width: 365
Flags: W
LayerCount: 2
Fore
SplineSet
316 601 m 256,0,1
 316 545 316 545 277.5 506.5 c 128,-1,2
 239 468 239 468 183 468 c 0,3,4
 128 468 128 468 89 507 c 128,-1,5
 50 546 50 546 50 601 c 256,6,7
 50 656 50 656 89 695 c 128,-1,8
 128 734 128 734 183 734 c 0,9,10
 239 734 239 734 277.5 695.5 c 128,-1,11
 316 657 316 657 316 601 c 256,0,1
273 601 m 256,12,13
 273 639 273 639 247 665 c 128,-1,14
 221 691 221 691 183 691 c 256,15,16
 145 691 145 691 119 665 c 128,-1,17
 93 639 93 639 93 601 c 256,18,19
 93 563 93 563 119 537 c 128,-1,20
 145 511 145 511 183 511 c 256,21,22
 221 511 221 511 247 537 c 128,-1,23
 273 563 273 563 273 601 c 256,12,13
EndSplineSet
EndChar

StartChar: cent
Encoding: 162 162 132
Width: 464
Flags: W
LayerCount: 2
Fore
SplineSet
289 736 m 1,0,-1
 243 689 l 1,1,-1
 202 736 l 1,2,-1
 202 808 l 1,3,-1
 244 855 l 1,4,-1
 289 805 l 1,5,-1
 289 736 l 1,0,-1
443 720 m 1,6,-1
 357 634 l 1,7,-1
 145 634 l 1,8,-1
 104 675 l 1,9,-1
 146 720 l 1,10,-1
 195 720 l 1,11,-1
 244 667 l 1,12,-1
 297 720 l 1,13,-1
 443 720 l 1,6,-1
129 414 m 1,14,-1
 43 371 l 1,15,-1
 43 619 l 1,16,-1
 86 662 l 1,17,-1
 129 619 l 1,18,-1
 129 414 l 1,14,-1
442 0 m 1,19,-1
 293 0 l 1,20,-1
 242 57 l 1,21,-1
 191 0 l 1,22,-1
 144 0 l 1,23,-1
 102 42 l 1,24,-1
 145 86 l 1,25,-1
 356 86 l 1,26,-1
 442 0 l 1,19,-1
129 101 m 1,27,-1
 86 58 l 1,28,-1
 43 101 l 1,29,-1
 43 349 l 1,30,-1
 129 299 l 1,31,-1
 129 101 l 1,27,-1
286 -84 m 1,32,-1
 243 -141 l 1,33,-1
 198 -86 l 1,34,-1
 198 -14 l 1,35,-1
 242 29 l 1,36,-1
 286 -15 l 1,37,-1
 286 -84 l 1,32,-1
EndSplineSet
EndChar

StartChar: sterling
Encoding: 163 163 133
Width: 534
Flags: W
LayerCount: 2
Fore
SplineSet
513 720 m 1,0,-1
 426 634 l 1,1,-1
 217 634 l 1,2,-1
 174 676 l 1,3,-1
 217 720 l 1,4,-1
 513 720 l 1,0,-1
204 413 m 1,5,-1
 159 373 l 1,6,-1
 117 415 l 1,7,-1
 117 619 l 1,8,-1
 161 664 l 1,9,-1
 204 619 l 1,10,-1
 204 413 l 1,5,-1
382 358 m 1,11,-1
 339 320 l 1,12,-1
 218 320 l 1,13,-1
 174 358 l 1,14,-1
 220 407 l 1,15,-1
 339 407 l 1,16,-1
 382 358 l 1,11,-1
147 358 m 1,17,-1
 100 320 l 1,18,-1
 21 320 l 1,19,-1
 -22 359 l 1,20,-1
 23 407 l 1,21,-1
 98 407 l 1,22,-1
 147 358 l 1,17,-1
513 0 m 1,23,-1
 118 0 l 1,24,-1
 217 86 l 1,25,-1
 426 86 l 1,26,-1
 513 0 l 1,23,-1
203 102 m 1,27,-1
 115 30 l 1,28,-1
 115 301 l 1,29,-1
 161 341 l 1,30,-1
 203 301 l 1,31,-1
 203 102 l 1,27,-1
EndSplineSet
EndChar

StartChar: section
Encoding: 167 167 134
Width: 489
Flags: W
LayerCount: 2
Fore
SplineSet
447 469 m 1,0,-1
 403 426 l 1,1,-1
 361 469 l 1,2,-1
 361 620 l 1,3,-1
 402 663 l 1,4,-1
 447 621 l 1,5,-1
 447 469 l 1,0,-1
389 675 m 1,6,-1
 345 634 l 1,7,-1
 145 634 l 1,8,-1
 102 675 l 1,9,-1
 145 720 l 1,10,-1
 346 720 l 1,11,-1
 389 675 l 1,6,-1
389 409 m 1,12,-1
 340 362 l 1,13,-1
 153 362 l 1,14,-1
 102 409 l 1,15,-1
 138 449 l 1,16,-1
 354 449 l 1,17,-1
 389 409 l 1,12,-1
447 150 m 1,18,-1
 403 107 l 1,19,-1
 361 150 l 1,20,-1
 361 348 l 1,21,-1
 402 391 l 1,22,-1
 447 349 l 1,23,-1
 447 150 l 1,18,-1
132 149 m 1,24,-1
 88 106 l 1,25,-1
 43 150 l 1,26,-1
 43 348 l 1,27,-1
 88 391 l 1,28,-1
 132 348 l 1,29,-1
 132 149 l 1,24,-1
389 86 m 1,30,-1
 353 52 l 1,31,-1
 137 52 l 1,32,-1
 101 86 l 1,33,-1
 153 137 l 1,34,-1
 338 137 l 1,35,-1
 389 86 l 1,30,-1
389 -181 m 1,36,-1
 346 -219 l 1,37,-1
 145 -219 l 1,38,-1
 101 -181 l 1,39,-1
 146 -134 l 1,40,-1
 345 -134 l 1,41,-1
 389 -181 l 1,36,-1
132 -122 m 1,42,-1
 88 -165 l 1,43,-1
 43 -122 l 1,44,-1
 43 28 l 1,45,-1
 88 70 l 1,46,-1
 132 27 l 1,47,-1
 132 -122 l 1,42,-1
EndSplineSet
EndChar

StartChar: bullet
Encoding: 8226 8226 135
Width: 365
Flags: W
LayerCount: 2
Fore
SplineSet
316 360 m 256,0,1
 316 304 316 304 277.5 265.5 c 128,-1,2
 239 227 239 227 183 227 c 256,3,4
 127 227 127 227 88.5 265.5 c 128,-1,5
 50 304 50 304 50 360 c 0,6,7
 50 415 50 415 89 454 c 128,-1,8
 128 493 128 493 183 493 c 0,9,10
 239 493 239 493 277.5 454.5 c 128,-1,11
 316 416 316 416 316 360 c 256,0,1
EndSplineSet
EndChar

StartChar: paragraph
Encoding: 182 182 136
Width: 528
Flags: W
LayerCount: 2
Fore
SplineSet
457 421 m 1,0,-1
 371 371 l 1,1,-1
 371 706 l 1,2,-1
 457 619 l 1,3,-1
 457 421 l 1,0,-1
333 720 m 1,4,-1
 246 634 l 1,5,-1
 147 634 l 1,6,-1
 103 676 l 1,7,-1
 147 720 l 1,8,-1
 333 720 l 1,4,-1
347 371 m 1,9,-1
 261 421 l 1,10,-1
 261 619 l 1,11,-1
 347 706 l 1,12,-1
 347 371 l 1,9,-1
133 421 m 1,13,-1
 47 371 l 1,14,-1
 47 619 l 1,15,-1
 90 662 l 1,16,-1
 133 619 l 1,17,-1
 133 421 l 1,13,-1
457 86 m 1,18,-1
 371 0 l 1,19,-1
 371 349 l 1,20,-1
 457 306 l 1,21,-1
 457 86 l 1,18,-1
327 360 m 1,22,-1
 246 320 l 1,23,-1
 147 320 l 1,24,-1
 66 360 l 1,25,-1
 147 407 l 1,26,-1
 246 407 l 1,27,-1
 327 360 l 1,22,-1
347 0 m 1,28,-1
 261 86 l 1,29,-1
 261 306 l 1,30,-1
 347 349 l 1,31,-1
 347 0 l 1,28,-1
EndSplineSet
EndChar

StartChar: registered
Encoding: 174 174 137
Width: 861
Flags: W
LayerCount: 2
Fore
SplineSet
798 363 m 256,0,1
 798 209 798 209 689 100 c 128,-1,2
 580 -9 580 -9 426 -9 c 256,3,4
 272 -9 272 -9 163 100 c 128,-1,5
 54 209 54 209 54 363 c 256,6,7
 54 517 54 517 163 626 c 128,-1,8
 272 735 272 735 426 735 c 256,9,10
 580 735 580 735 689 626 c 128,-1,11
 798 517 798 517 798 363 c 256,0,1
756 363 m 256,12,13
 756 500 756 500 659.5 596.5 c 128,-1,14
 563 693 563 693 426 693 c 256,15,16
 289 693 289 693 192.5 596.5 c 128,-1,17
 96 500 96 500 96 363 c 256,18,19
 96 226 96 226 192.5 129.5 c 128,-1,20
 289 33 289 33 426 33 c 256,21,22
 563 33 563 33 659.5 129.5 c 128,-1,23
 756 226 756 226 756 363 c 256,12,13
552 367 m 1,24,-1
 497 399 l 1,25,-1
 497 525 l 1,26,-1
 525 553 l 1,27,-1
 552 525 l 1,28,-1
 552 367 l 1,24,-1
517 562 m 1,29,-1
 488 535 l 1,30,-1
 355 535 l 1,31,-1
 299 590 l 1,32,-1
 488 590 l 1,33,-1
 517 562 l 1,29,-1
345 399 m 1,34,-1
 290 367 l 1,35,-1
 290 581 l 1,36,-1
 345 525 l 1,37,-1
 345 399 l 1,34,-1
540 360 m 1,38,-1
 488 334 l 1,39,-1
 355 334 l 1,40,-1
 303 360 l 1,41,-1
 355 390 l 1,42,-1
 488 390 l 1,43,-1
 540 360 l 1,38,-1
593 129 m 1,44,-1
 497 193 l 1,45,-1
 430 325 l 1,46,-1
 492 325 l 1,47,-1
 593 129 l 1,44,-1
345 194 m 1,48,-1
 290 138 l 1,49,-1
 290 353 l 1,50,-1
 345 325 l 1,51,-1
 345 194 l 1,48,-1
EndSplineSet
EndChar

StartChar: copyright
Encoding: 169 169 138
Width: 861
Flags: W
LayerCount: 2
Fore
SplineSet
798 363 m 256,0,1
 798 209 798 209 689 100 c 128,-1,2
 580 -9 580 -9 426 -9 c 256,3,4
 272 -9 272 -9 163 100 c 128,-1,5
 54 209 54 209 54 363 c 256,6,7
 54 517 54 517 163 626 c 128,-1,8
 272 735 272 735 426 735 c 256,9,10
 580 735 580 735 689 626 c 128,-1,11
 798 517 798 517 798 363 c 256,0,1
756 363 m 256,12,13
 756 500 756 500 659.5 596.5 c 128,-1,14
 563 693 563 693 426 693 c 256,15,16
 289 693 289 693 192.5 596.5 c 128,-1,17
 96 500 96 500 96 363 c 256,18,19
 96 226 96 226 192.5 129.5 c 128,-1,20
 289 33 289 33 426 33 c 256,21,22
 563 33 563 33 659.5 129.5 c 128,-1,23
 756 226 756 226 756 363 c 256,12,13
530 578 m 1,24,-1
 476 523 l 1,25,-1
 342 523 l 1,26,-1
 314 550 l 1,27,-1
 342 578 l 1,28,-1
 530 578 l 1,24,-1
332 382 m 1,29,-1
 278 355 l 1,30,-1
 278 513 l 1,31,-1
 305 541 l 1,32,-1
 332 513 l 1,33,-1
 332 382 l 1,29,-1
530 117 m 1,34,-1
 342 117 l 1,35,-1
 314 145 l 1,36,-1
 342 173 l 1,37,-1
 476 173 l 1,38,-1
 530 117 l 1,34,-1
332 182 m 1,39,-1
 305 154 l 1,40,-1
 278 182 l 1,41,-1
 278 341 l 1,42,-1
 332 309 l 1,43,-1
 332 182 l 1,39,-1
EndSplineSet
EndChar

StartChar: trademark
Encoding: 8482 8482 139
Width: 732
Flags: W
LayerCount: 2
Fore
SplineSet
683 360 m 1,0,-1
 630 360 l 1,1,-1
 593 574 l 1,2,-1
 591 586 l 1,3,-1
 590 592 l 2,4,5
 589 602 589 602 589 608 c 256,6,7
 589 614 589 614 591 626 c 1,8,-1
 582 593 l 1,9,-1
 577 581 l 1,10,-1
 576 576 l 1,11,-1
 476 351 l 1,12,-1
 461 351 l 1,13,-1
 361 576 l 1,14,-1
 359 582 l 1,15,-1
 355 593 l 1,16,-1
 346 626 l 1,17,18
 348 610 348 610 348 604 c 0,19,20
 347 596 347 596 347 592 c 2,21,-1
 346 586 l 1,22,-1
 344 574 l 1,23,-1
 307 360 l 1,24,-1
 254 360 l 1,25,-1
 325 731 l 1,26,-1
 346 731 l 1,27,-1
 453 492 l 1,28,-1
 459 478 l 1,29,-1
 462 470 l 2,30,31
 464 464 464 464 466 454.5 c 128,-1,32
 468 445 468 445 468 434 c 1,33,34
 471 462 471 462 483 492 c 1,35,-1
 591 731 l 1,36,-1
 612 731 l 1,37,-1
 683 360 l 1,0,-1
266 673 m 1,38,-1
 184 673 l 1,39,-1
 184 360 l 1,40,-1
 131 360 l 1,41,-1
 131 673 l 1,42,-1
 50 673 l 1,43,-1
 50 720 l 1,44,-1
 266 720 l 1,45,-1
 266 673 l 1,38,-1
EndSplineSet
EndChar

StartChar: acute
Encoding: 180 180 140
Width: 158
Flags: W
LayerCount: 2
Fore
SplineSet
159 507 m 1,0,-1
 93 363 l 1,1,-1
 0 363 l 1,2,-1
 65 507 l 1,3,-1
 159 507 l 1,0,-1
EndSplineSet
EndChar

StartChar: dieresis
Encoding: 168 168 141
Width: 245
Flags: W
LayerCount: 2
Fore
SplineSet
246 761 m 1,0,-1
 160 761 l 1,1,-1
 160 891 l 1,2,-1
 246 891 l 1,3,-1
 246 761 l 1,0,-1
86 761 m 1,4,-1
 0 761 l 1,5,-1
 0 891 l 1,6,-1
 86 891 l 1,7,-1
 86 761 l 1,4,-1
EndSplineSet
EndChar

StartChar: AE
Encoding: 198 198 142
Width: 792
Flags: W
LayerCount: 2
Fore
SplineSet
771 720 m 1,0,-1
 685 634 l 1,1,-1
 470 634 l 1,2,-1
 415 689 l 1,3,-1
 355 634 l 1,4,-1
 145 634 l 1,5,-1
 59 720 l 1,6,-1
 771 720 l 1,0,-1
757 361 m 1,7,-1
 674 320 l 1,8,-1
 470 320 l 1,9,-1
 431 364 l 1,10,-1
 473 407 l 1,11,-1
 677 407 l 1,12,-1
 757 361 l 1,7,-1
455 422 m 1,13,-1
 413 378 l 1,14,-1
 368 423 l 1,15,-1
 368 621 l 1,16,-1
 413 665 l 1,17,-1
 455 621 l 1,18,-1
 455 422 l 1,13,-1
131 422 m 1,19,-1
 43 372 l 1,20,-1
 43 706 l 1,21,-1
 131 619 l 1,22,-1
 131 422 l 1,19,-1
771 0 m 1,23,-1
 388 0 l 1,24,-1
 475 86 l 1,25,-1
 686 86 l 1,26,-1
 771 0 l 1,23,-1
399 364 m 1,27,-1
 354 320 l 1,28,-1
 144 320 l 1,29,-1
 63 361 l 1,30,-1
 145 407 l 1,31,-1
 355 407 l 1,32,-1
 399 364 l 1,27,-1
455 93 m 1,33,-1
 369 7 l 1,34,-1
 369 306 l 1,35,-1
 413 349 l 1,36,-1
 455 306 l 1,37,-1
 455 93 l 1,33,-1
130 85 m 1,38,-1
 43 0 l 1,39,-1
 43 350 l 1,40,-1
 130 305 l 1,41,-1
 130 85 l 1,38,-1
EndSplineSet
EndChar

StartChar: Oslash
Encoding: 216 216 143
Width: 500
Flags: W
LayerCount: 2
Fore
SplineSet
381 694 m 1,0,-1
 347 634 l 1,1,-1
 147 634 l 1,2,-1
 104 676 l 1,3,-1
 147 720 l 1,4,-1
 359 720 l 1,5,-1
 381 694 l 1,0,-1
459 372 m 1,6,-1
 371 421 l 1,7,-1
 371 457 l 1,8,-1
 459 606 l 1,9,-1
 459 372 l 1,6,-1
454 101 m 1,10,-1
 411 58 l 1,11,-1
 368 101 l 1,12,-1
 368 306 l 1,13,-1
 454 349 l 1,14,-1
 454 101 l 1,10,-1
459 649 m 1,15,-1
 87 0 l 1,16,-1
 43 0 l 1,17,-1
 43 73 l 1,18,-1
 417 720 l 1,19,-1
 459 720 l 1,20,-1
 459 649 l 1,15,-1
130 421 m 1,21,-1
 44 371 l 1,22,-1
 44 619 l 1,23,-1
 87 662 l 1,24,-1
 130 619 l 1,25,-1
 130 421 l 1,21,-1
132 263 m 1,26,-1
 44 112 l 1,27,-1
 44 348 l 1,28,-1
 132 307 l 1,29,-1
 132 263 l 1,26,-1
398 43 m 1,30,-1
 356 0 l 1,31,-1
 146 0 l 1,32,-1
 122 25 l 1,33,-1
 160 86 l 1,34,-1
 357 85 l 1,35,-1
 398 43 l 1,30,-1
EndSplineSet
EndChar

StartChar: plusminus
Encoding: 177 177 144
Width: 548
Flags: W
LayerCount: 2
Fore
SplineSet
506 263 m 1,0,-1
 309 263 l 1,1,-1
 309 141 l 1,2,-1
 241 141 l 1,3,-1
 241 263 l 1,4,-1
 44 263 l 1,5,-1
 44 331 l 1,6,-1
 241 331 l 1,7,-1
 241 453 l 1,8,-1
 309 453 l 1,9,-1
 309 331 l 1,10,-1
 506 331 l 1,11,-1
 506 263 l 1,0,-1
506 19 m 1,12,-1
 44 19 l 1,13,-1
 44 87 l 1,14,-1
 506 87 l 1,15,-1
 506 19 l 1,12,-1
EndSplineSet
EndChar

StartChar: yen
Encoding: 165 165 145
Width: 508
Flags: W
LayerCount: 2
Fore
SplineSet
455 371 m 1,0,-1
 369 421 l 1,1,-1
 369 634 l 1,2,-1
 455 720 l 1,3,-1
 455 371 l 1,0,-1
487 253 m 1,4,-1
 467 227 l 1,5,-1
 325 227 l 1,6,-1
 325 286 l 1,7,-1
 470 286 l 1,8,-1
 487 253 l 1,4,-1
131 421 m 1,9,-1
 45 371 l 1,10,-1
 45 720 l 1,11,-1
 131 634 l 1,12,-1
 131 421 l 1,9,-1
435 360 m 1,13,-1
 354 320 l 1,14,-1
 145 320 l 1,15,-1
 64 360 l 1,16,-1
 145 407 l 1,17,-1
 354 407 l 1,18,-1
 435 360 l 1,13,-1
487 158 m 1,19,-1
 466 129 l 1,20,-1
 325 129 l 1,21,-1
 325 189 l 1,22,-1
 467 189 l 1,23,-1
 487 158 l 1,19,-1
296 50 m 1,24,-1
 250 0 l 1,25,-1
 208 50 l 1,26,-1
 208 301 l 1,27,-1
 296 301 l 1,28,-1
 296 50 l 1,24,-1
186 226 m 1,29,-1
 43 226 l 1,30,-1
 22 254 l 1,31,-1
 46 286 l 1,32,-1
 186 286 l 1,33,-1
 186 226 l 1,29,-1
186 128 m 1,34,-1
 41 128 l 1,35,-1
 23 155 l 1,36,-1
 42 187 l 1,37,-1
 186 187 l 1,38,-1
 186 128 l 1,34,-1
EndSplineSet
EndChar

StartChar: ordfeminine
Encoding: 170 170 146
Width: 442
Flags: W
LayerCount: 2
Fore
SplineSet
393 394 m 1,0,-1
 335 394 l 1,1,-1
 335 470 l 1,2,-1
 332 462 l 1,3,4
 317 428 317 428 283 407 c 128,-1,5
 249 386 249 386 208 386 c 0,6,7
 178 386 178 386 148 398 c 0,8,9
 70 432 70 432 53 522 c 0,10,11
 50 539 50 539 50 557 c 0,12,13
 50 574 50 574 53 592 c 0,14,15
 66 656 66 656 109.5 693.5 c 128,-1,16
 153 731 153 731 210 731 c 0,17,18
 224 731 224 731 239 728 c 0,19,20
 298 715 298 715 327 664 c 1,21,-1
 332 656 l 1,22,-1
 335 649 l 1,23,-1
 335 720 l 1,24,-1
 393 720 l 1,25,-1
 393 394 l 1,0,-1
393 290 m 1,26,-1
 61 290 l 1,27,-1
 61 344 l 1,28,-1
 393 344 l 1,29,-1
 393 290 l 1,26,-1
333 533 m 0,30,31
 336 545 336 545 336 558 c 0,32,33
 336 570 336 570 333 584 c 0,34,35
 321 645 321 645 269 669 c 0,36,37
 248 679 248 679 223 679 c 0,38,39
 182 679 182 679 151 652.5 c 128,-1,40
 120 626 120 626 112 580 c 1,41,-1
 110 558 l 1,42,-1
 113 535 l 1,43,44
 122 485 122 485 161 458 c 0,45,46
 190 438 190 438 223 438 c 0,47,48
 257 438 257 438 287 459 c 0,49,50
 304 471 304 471 316.5 490.5 c 128,-1,51
 329 510 329 510 333 533 c 0,30,31
EndSplineSet
EndChar

StartChar: ordmasculine
Encoding: 186 186 147
Width: 443
Flags: W
LayerCount: 2
Fore
SplineSet
391 525 m 0,0,1
 380 471 380 471 344.5 435 c 128,-1,2
 309 399 309 399 257 388 c 0,3,4
 242 384 242 384 222 384 c 0,5,6
 213 384 213 384 205 384 c 1,7,8
 193 387 193 387 187 388 c 0,9,10
 135 399 135 399 99.5 435 c 128,-1,11
 64 471 64 471 53 525 c 1,12,-1
 50 560 l 1,13,-1
 53 594 l 1,14,15
 66 657 66 657 113 696.5 c 128,-1,16
 160 736 160 736 220 736 c 0,17,18
 255 736 255 736 291 721 c 0,19,20
 374 686 374 686 391 594 c 0,21,22
 394 577 394 577 394 560 c 0,23,24
 394 542 394 542 391 525 c 0,0,1
389 290 m 1,25,-1
 56 290 l 1,26,-1
 56 344 l 1,27,-1
 389 344 l 1,28,-1
 389 290 l 1,25,-1
335 560 m 0,29,30
 335 575 335 575 333 583 c 0,31,32
 326 626 326 626 294 653.5 c 128,-1,33
 262 681 262 681 222 681 c 0,34,35
 197 681 197 681 176 671 c 0,36,37
 109 640 109 640 109 560 c 0,38,39
 109 545 109 545 111 538 c 0,40,41
 117 499 117 499 140 474 c 128,-1,42
 163 449 163 449 198 441 c 0,43,44
 210 438 210 438 222 438 c 0,45,46
 268 438 268 438 301.5 472.5 c 128,-1,47
 335 507 335 507 335 560 c 0,29,30
EndSplineSet
EndChar

StartChar: ae
Encoding: 230 230 148
Width: 792
Flags: W
LayerCount: 2
Fore
SplineSet
771 720 m 1,0,-1
 685 634 l 1,1,-1
 470 634 l 1,2,-1
 415 689 l 1,3,-1
 355 634 l 1,4,-1
 145 634 l 1,5,-1
 59 720 l 1,6,-1
 771 720 l 1,0,-1
757 361 m 1,7,-1
 674 320 l 1,8,-1
 470 320 l 1,9,-1
 431 364 l 1,10,-1
 473 407 l 1,11,-1
 677 407 l 1,12,-1
 757 361 l 1,7,-1
455 422 m 1,13,-1
 413 378 l 1,14,-1
 368 423 l 1,15,-1
 368 621 l 1,16,-1
 413 665 l 1,17,-1
 455 621 l 1,18,-1
 455 422 l 1,13,-1
131 422 m 1,19,-1
 43 372 l 1,20,-1
 43 706 l 1,21,-1
 131 619 l 1,22,-1
 131 422 l 1,19,-1
771 0 m 1,23,-1
 388 0 l 1,24,-1
 475 86 l 1,25,-1
 686 86 l 1,26,-1
 771 0 l 1,23,-1
399 364 m 1,27,-1
 354 320 l 1,28,-1
 144 320 l 1,29,-1
 63 361 l 1,30,-1
 145 407 l 1,31,-1
 355 407 l 1,32,-1
 399 364 l 1,27,-1
455 93 m 1,33,-1
 369 7 l 1,34,-1
 369 306 l 1,35,-1
 413 349 l 1,36,-1
 455 306 l 1,37,-1
 455 93 l 1,33,-1
130 85 m 1,38,-1
 43 0 l 1,39,-1
 43 350 l 1,40,-1
 130 305 l 1,41,-1
 130 85 l 1,38,-1
EndSplineSet
EndChar

StartChar: oslash
Encoding: 248 248 149
Width: 500
Flags: W
LayerCount: 2
Fore
SplineSet
381 694 m 1,0,-1
 347 634 l 1,1,-1
 147 634 l 1,2,-1
 104 676 l 1,3,-1
 147 720 l 1,4,-1
 359 720 l 1,5,-1
 381 694 l 1,0,-1
459 372 m 1,6,-1
 371 421 l 1,7,-1
 371 457 l 1,8,-1
 459 606 l 1,9,-1
 459 372 l 1,6,-1
454 101 m 1,10,-1
 411 58 l 1,11,-1
 368 101 l 1,12,-1
 368 306 l 1,13,-1
 454 349 l 1,14,-1
 454 101 l 1,10,-1
459 649 m 1,15,-1
 87 0 l 1,16,-1
 43 0 l 1,17,-1
 43 73 l 1,18,-1
 417 720 l 1,19,-1
 459 720 l 1,20,-1
 459 649 l 1,15,-1
130 421 m 1,21,-1
 44 371 l 1,22,-1
 44 619 l 1,23,-1
 87 662 l 1,24,-1
 130 619 l 1,25,-1
 130 421 l 1,21,-1
132 263 m 1,26,-1
 44 112 l 1,27,-1
 44 348 l 1,28,-1
 132 307 l 1,29,-1
 132 263 l 1,26,-1
398 43 m 1,30,-1
 356 0 l 1,31,-1
 146 0 l 1,32,-1
 122 25 l 1,33,-1
 160 86 l 1,34,-1
 357 85 l 1,35,-1
 398 43 l 1,30,-1
EndSplineSet
EndChar

StartChar: questiondown
Encoding: 191 191 150
Width: 418
Flags: W
LayerCount: 2
Fore
SplineSet
309 565 m 1,0,-1
 223 565 l 1,1,-1
 223 720 l 1,2,-1
 309 720 l 1,3,-1
 309 565 l 1,0,-1
309 327 m 1,4,-1
 222 410 l 1,5,-1
 222 517 l 1,6,-1
 309 517 l 1,7,-1
 309 327 l 1,4,-1
291 313 m 1,8,-1
 143 313 l 1,9,-1
 63 358 l 1,10,-1
 144 400 l 1,11,-1
 204 400 l 1,12,-1
 291 313 l 1,8,-1
129 101 m 1,13,-1
 86 58 l 1,14,-1
 43 101 l 1,15,-1
 43 349 l 1,16,-1
 129 299 l 1,17,-1
 129 101 l 1,13,-1
397 44 m 1,18,-1
 353 0 l 1,19,-1
 144 0 l 1,20,-1
 100 44 l 1,21,-1
 144 86 l 1,22,-1
 353 86 l 1,23,-1
 397 44 l 1,18,-1
EndSplineSet
EndChar

StartChar: exclamdown
Encoding: 161 161 151
Width: 170
Flags: W
LayerCount: 2
Fore
SplineSet
129 565 m 1,0,-1
 43 565 l 1,1,-1
 43 720 l 1,2,-1
 129 720 l 1,3,-1
 129 565 l 1,0,-1
129 86 m 1,4,-1
 43 0 l 1,5,-1
 43 508 l 1,6,-1
 129 443 l 1,7,-1
 129 86 l 1,4,-1
EndSplineSet
EndChar

StartChar: logicalnot
Encoding: 172 172 152
Width: 1161
Flags: W
LayerCount: 2
Fore
SplineSet
995 274 m 0,0,1
 995 244 995 244 964 172 c 0,2,3
 941 118 941 118 914 70 c 0,4,5
 893 34 893 34 885 24 c 0,6,7
 863 -4 863 -4 840 -4 c 0,8,9
 820 -4 820 -4 803 7 c 0,10,11
 782 21 782 21 782 39 c 0,12,13
 782 51 782 51 789.5 62 c 128,-1,14
 797 73 797 73 808 83 c 1,15,16
 821 66 821 66 826 62 c 0,17,18
 838 51 838 51 853 51 c 0,19,20
 893 51 893 51 925 119 c 0,21,22
 952 176 952 176 952 222 c 0,23,24
 952 248 952 248 938.5 255.5 c 128,-1,25
 925 263 925 263 897 263 c 0,26,27
 854 263 854 263 850 236.5 c 128,-1,28
 846 210 846 210 841 207 c 1,29,-1
 834 224 l 1,30,31
 835 228 835 228 835 238 c 0,32,33
 835 250 835 250 835 256 c 0,34,35
 835 282 835 282 843 293 c 0,36,37
 856 310 856 310 894 310 c 0,38,39
 937 310 937 310 956 306 c 0,40,41
 995 298 995 298 995 274 c 0,0,1
1131 121 m 0,42,43
 1131 51 1131 51 1092 19 c 128,-1,44
 1053 -13 1053 -13 982 -13 c 0,45,46
 962 -13 962 -13 943 -8 c 0,47,48
 914 0 914 0 914 15 c 0,49,50
 914 34 914 34 934 34 c 256,51,52
 954 34 954 34 963 17 c 0,53,54
 967 9 967 9 973.5 5.5 c 128,-1,55
 980 2 980 2 993 -2 c 1,56,57
 1104 -2 1104 -2 1104 116 c 1,58,59
 1106 134 1106 134 1106 146 c 0,60,61
 1106 217 1106 217 1076 268 c 0,62,63
 1037 334 1037 334 966.5 343 c 128,-1,64
 896 352 896 352 849.5 357 c 128,-1,65
 803 362 803 362 782 362 c 0,66,67
 757 362 757 362 717.5 355.5 c 128,-1,68
 678 349 678 349 644 344 c 0,69,70
 542 327 542 327 426.5 223.5 c 128,-1,71
 311 120 311 120 301 34 c 1,72,73
 311 20 311 20 317 3.5 c 128,-1,74
 323 -13 323 -13 323 -30 c 0,75,76
 323 -55 323 -55 312 -55 c 0,77,78
 299 -55 299 -55 291 -31.5 c 128,-1,79
 283 -8 283 -8 283 10 c 2,80,-1
 283 15 l 1,81,82
 248 44 248 44 242 50 c 0,83,84
 213 78 213 78 210 98 c 1,85,86
 210 109 210 109 209.5 118 c 128,-1,87
 209 127 209 127 209 133 c 0,88,89
 209 141 209 141 210 145 c 1,90,91
 173 113 173 113 134 87 c 0,92,93
 78 50 78 50 50 50 c 0,94,95
 27 50 27 50 27 69 c 0,96,97
 27 92 27 92 39.5 129.5 c 128,-1,98
 52 167 52 167 62 182 c 1,99,-1
 94 224 l 1,100,-1
 104 238 l 1,101,102
 63 238 63 238 56 281 c 1,103,104
 61 280 61 280 65 280 c 256,105,106
 69 280 69 280 70 280 c 0,107,108
 97 280 97 280 123.5 294.5 c 128,-1,109
 150 309 150 309 174 333 c 1,110,111
 176 333 176 333 178 334 c 1,112,113
 182 328 182 328 182 318 c 0,114,115
 182 281 182 281 158 263 c 1,116,117
 138 250 138 250 118 237 c 1,118,119
 117 234 117 234 89 193 c 0,120,121
 69 163 69 163 69 142 c 0,122,123
 69 125 69 125 76 104 c 128,-1,124
 83 83 83 83 94 83 c 0,125,126
 110 83 110 83 156 114 c 0,127,128
 187 136 187 136 218 158 c 1,129,130
 221 163 221 163 239 208 c 0,131,132
 253 243 253 243 265 257 c 0,133,134
 271 263 271 263 279 270.5 c 128,-1,135
 287 278 287 278 294 278 c 0,136,137
 308 278 308 278 308 265 c 0,138,139
 308 246 308 246 289 226 c 0,140,141
 278 214 278 214 255 199 c 1,142,143
 249 188 249 188 243.5 164.5 c 128,-1,144
 238 141 238 141 238 133 c 0,145,146
 238 122 238 122 259 93 c 0,147,148
 269 79 269 79 289 54 c 1,149,150
 308 145 308 145 417 243 c 0,151,152
 521 336 521 336 602.5 352.5 c 128,-1,153
 684 369 684 369 712 373 c 0,154,155
 761 380 761 380 814 380 c 0,156,157
 855 380 855 380 891 377 c 128,-1,158
 927 374 927 374 984.5 364 c 128,-1,159
 1042 354 1042 354 1080 307 c 0,160,161
 1131 243 1131 243 1131 121 c 0,42,43
750 10 m 1,162,163
 746 -3 746 -3 727 -3 c 0,164,165
 719 -3 719 -3 715 -2 c 0,166,167
 688 8 688 8 693 26 c 0,168,169
 696 38 696 38 714 38 c 0,170,171
 721 38 721 38 725 37 c 0,172,173
 753 29 753 29 750 10 c 1,162,163
738 138 m 0,174,175
 738 109 738 109 717 80 c 0,176,177
 702 59 702 59 674 37 c 0,178,179
 607 -14 607 -14 520 -14 c 0,180,181
 477 -14 477 -14 447 1 c 0,182,183
 409 20 409 20 409 59 c 0,184,185
 409 84 409 84 426.5 103.5 c 128,-1,186
 444 123 444 123 470 130 c 1,187,-1
 471 125 l 1,188,189
 451 118 451 118 443 110 c 0,190,191
 430 98 430 98 430 81 c 0,192,193
 430 44 430 44 476 28 c 0,194,195
 509 17 509 17 557 17 c 0,196,197
 627 17 627 17 685 59 c 0,198,199
 698 69 698 69 705 79.5 c 128,-1,200
 712 90 712 90 712 104 c 0,201,202
 712 123 712 123 696 128.5 c 128,-1,203
 680 134 680 134 655 134 c 0,204,205
 644 134 644 134 616.5 132 c 128,-1,206
 589 130 589 130 588 130 c 0,207,208
 551 130 551 130 529 144 c 0,209,210
 502 161 502 161 502 197 c 0,211,212
 502 246 502 246 546.5 274.5 c 128,-1,213
 591 303 591 303 645 303 c 0,214,215
 664 303 664 303 672 301.5 c 128,-1,216
 680 300 680 300 690 290 c 1,217,218
 700 294 700 294 704 289 c 1,219,220
 711 276 711 276 719 264 c 2,221,-1
 722 260 l 1,222,223
 720 253 720 253 708 242 c 128,-1,224
 696 231 696 231 693 226 c 1,225,226
 691 216 691 216 683.5 221.5 c 128,-1,227
 676 227 676 227 670 232 c 1,228,229
 665 233 665 233 660 235 c 0,230,231
 654 237 654 237 654 242 c 0,232,233
 654 248 654 248 659 255 c 0,234,235
 671 272 671 272 671 278 c 0,236,237
 671 287 671 287 661.5 291.5 c 128,-1,238
 652 296 652 296 642 296 c 0,239,240
 603 296 603 296 570 278 c 0,241,242
 530 256 530 256 530 219 c 0,243,244
 530 203 530 203 543.5 193 c 128,-1,245
 557 183 557 183 588 183 c 1,246,-1
 645 186 l 1,247,248
 686 186 686 186 705 180 c 0,249,250
 738 169 738 169 738 138 c 0,174,175
407 7 m 1,251,252
 405 -6 405 -6 384 -6 c 0,253,254
 380 -6 380 -6 370 -4 c 128,-1,255
 360 -2 360 -2 353 6 c 128,-1,256
 346 14 346 14 348 24 c 0,257,258
 351 37 351 37 370 37 c 0,259,260
 374 37 374 37 384.5 34 c 128,-1,261
 395 31 395 31 402.5 23.5 c 128,-1,262
 410 16 410 16 407 7 c 1,251,252
EndSplineSet
EndChar

StartChar: florin
Encoding: 402 402 153
Width: 545
Flags: W
LayerCount: 2
Fore
SplineSet
524 720 m 1,0,-1
 427 634 l 1,1,-1
 218 634 l 1,2,-1
 143 720 l 1,3,-1
 524 720 l 1,0,-1
202 619 m 1,4,-1
 178 421 l 1,5,-1
 85 371 l 1,6,-1
 126 706 l 1,7,-1
 202 619 l 1,4,-1
392 360 m 1,8,-1
 306 320 l 1,9,-1
 180 320 l 1,10,-1
 104 360 l 1,11,-1
 190 407 l 1,12,-1
 316 407 l 1,13,-1
 392 360 l 1,8,-1
164 306 m 1,14,-1
 119 -58 l 1,15,-1
 22 -144 l 1,16,-1
 83 349 l 1,17,-1
 164 306 l 1,14,-1
EndSplineSet
EndChar

StartChar: guillemotleft
Encoding: 171 171 154
Width: 397
Flags: W
LayerCount: 2
Fore
SplineSet
376 468 m 1,0,-1
 274 245 l 1,1,-1
 181 245 l 1,2,-1
 282 468 l 1,3,-1
 376 468 l 1,0,-1
218 468 m 1,4,-1
 115 245 l 1,5,-1
 22 245 l 1,6,-1
 123 468 l 1,7,-1
 218 468 l 1,4,-1
375 0 m 1,8,-1
 281 0 l 1,9,-1
 181 221 l 1,10,-1
 274 221 l 1,11,-1
 375 0 l 1,8,-1
216 0 m 1,12,-1
 122 0 l 1,13,-1
 22 221 l 1,14,-1
 115 221 l 1,15,-1
 216 0 l 1,12,-1
EndSplineSet
EndChar

StartChar: guillemotright
Encoding: 187 187 155
Width: 397
Flags: W
LayerCount: 2
Fore
SplineSet
376 247 m 1,0,-1
 284 247 l 1,1,-1
 182 468 l 1,2,-1
 277 468 l 1,3,-1
 376 247 l 1,0,-1
218 247 m 1,4,-1
 125 247 l 1,5,-1
 23 468 l 1,6,-1
 118 468 l 1,7,-1
 218 247 l 1,4,-1
376 223 m 1,8,-1
 276 0 l 1,9,-1
 181 0 l 1,10,-1
 284 223 l 1,11,-1
 376 223 l 1,8,-1
217 223 m 1,12,-1
 117 0 l 1,13,-1
 22 0 l 1,14,-1
 125 223 l 1,15,-1
 217 223 l 1,12,-1
EndSplineSet
EndChar

StartChar: ellipsis
Encoding: 8230 8230 156
Width: 571
Flags: W
LayerCount: 2
Fore
SplineSet
531 45 m 0,0,1
 531 23 531 23 515 7 c 128,-1,2
 499 -9 499 -9 477 -9 c 0,3,4
 454 -9 454 -9 438.5 6.5 c 128,-1,5
 423 22 423 22 423 45 c 256,6,7
 423 68 423 68 438.5 83.5 c 128,-1,8
 454 99 454 99 477 99 c 0,9,10
 499 99 499 99 515 84 c 128,-1,11
 531 69 531 69 531 45 c 0,0,1
340 45 m 256,12,13
 340 22 340 22 324.5 6.5 c 128,-1,14
 309 -9 309 -9 286 -9 c 256,15,16
 263 -9 263 -9 247.5 6.5 c 128,-1,17
 232 22 232 22 232 45 c 256,18,19
 232 68 232 68 247.5 83.5 c 128,-1,20
 263 99 263 99 286 99 c 256,21,22
 309 99 309 99 324.5 83.5 c 128,-1,23
 340 68 340 68 340 45 c 256,12,13
149 45 m 256,24,25
 149 22 149 22 133.5 6.5 c 128,-1,26
 118 -9 118 -9 95 -9 c 256,27,28
 72 -9 72 -9 56.5 6.5 c 128,-1,29
 41 22 41 22 41 45 c 256,30,31
 41 68 41 68 56.5 83.5 c 128,-1,32
 72 99 72 99 95 99 c 256,33,34
 118 99 118 99 133.5 83.5 c 128,-1,35
 149 68 149 68 149 45 c 256,24,25
EndSplineSet
EndChar

StartChar: OE
Encoding: 338 338 161
Width: 795
Flags: W
LayerCount: 2
Fore
SplineSet
774 720 m 1,0,-1
 687 634 l 1,1,-1
 468 634 l 1,2,-1
 416 692 l 1,3,-1
 355 634 l 1,4,-1
 146 634 l 1,5,-1
 102 679 l 1,6,-1
 147 720 l 1,7,-1
 774 720 l 1,0,-1
757 361 m 1,8,-1
 674 320 l 1,9,-1
 470 320 l 1,10,-1
 431 364 l 1,11,-1
 473 407 l 1,12,-1
 677 407 l 1,13,-1
 757 361 l 1,8,-1
455 422 m 1,14,-1
 413 378 l 1,15,-1
 368 423 l 1,16,-1
 368 621 l 1,17,-1
 413 665 l 1,18,-1
 455 621 l 1,19,-1
 455 422 l 1,14,-1
454 92 m 1,20,-1
 413 49 l 1,21,-1
 367 93 l 1,22,-1
 367 309 l 1,23,-1
 414 353 l 1,24,-1
 454 308 l 1,25,-1
 454 92 l 1,20,-1
131 425 m 1,26,-1
 43 374 l 1,27,-1
 43 623 l 1,28,-1
 87 663 l 1,29,-1
 131 622 l 1,30,-1
 131 425 l 1,26,-1
773 0 m 1,31,-1
 143 0 l 1,32,-1
 100 36 l 1,33,-1
 154 86 l 1,34,-1
 353 86 l 1,35,-1
 412 24 l 1,36,-1
 474 86 l 1,37,-1
 688 86 l 1,38,-1
 773 0 l 1,31,-1
131 86 m 1,39,-1
 87 47 l 1,40,-1
 43 86 l 1,41,-1
 43 353 l 1,42,-1
 131 307 l 1,43,-1
 131 86 l 1,39,-1
EndSplineSet
EndChar

StartChar: oe
Encoding: 339 339 162
Width: 795
Flags: W
LayerCount: 2
Fore
SplineSet
774 720 m 1,0,-1
 687 634 l 1,1,-1
 468 634 l 1,2,-1
 416 692 l 1,3,-1
 355 634 l 1,4,-1
 146 634 l 1,5,-1
 102 679 l 1,6,-1
 147 720 l 1,7,-1
 774 720 l 1,0,-1
757 361 m 1,8,-1
 674 320 l 1,9,-1
 470 320 l 1,10,-1
 431 364 l 1,11,-1
 473 407 l 1,12,-1
 677 407 l 1,13,-1
 757 361 l 1,8,-1
455 422 m 1,14,-1
 413 378 l 1,15,-1
 368 423 l 1,16,-1
 368 621 l 1,17,-1
 413 665 l 1,18,-1
 455 621 l 1,19,-1
 455 422 l 1,14,-1
454 92 m 1,20,-1
 413 49 l 1,21,-1
 367 93 l 1,22,-1
 367 309 l 1,23,-1
 414 353 l 1,24,-1
 454 308 l 1,25,-1
 454 92 l 1,20,-1
131 425 m 1,26,-1
 43 374 l 1,27,-1
 43 623 l 1,28,-1
 87 663 l 1,29,-1
 131 622 l 1,30,-1
 131 425 l 1,26,-1
773 0 m 1,31,-1
 143 0 l 1,32,-1
 100 36 l 1,33,-1
 154 86 l 1,34,-1
 353 86 l 1,35,-1
 412 24 l 1,36,-1
 474 86 l 1,37,-1
 688 86 l 1,38,-1
 773 0 l 1,31,-1
131 86 m 1,39,-1
 87 47 l 1,40,-1
 43 86 l 1,41,-1
 43 353 l 1,42,-1
 131 307 l 1,43,-1
 131 86 l 1,39,-1
EndSplineSet
EndChar

StartChar: endash
Encoding: 8211 8211 163
Width: 495
Flags: W
LayerCount: 2
Fore
SplineSet
453 403 m 1,0,-1
 411 317 l 1,1,-1
 43 317 l 1,2,-1
 85 403 l 1,3,-1
 453 403 l 1,0,-1
EndSplineSet
EndChar

StartChar: emdash
Encoding: 8212 8212 164
Width: 885
Flags: W
LayerCount: 2
Fore
SplineSet
453 403 m 1,0,-1
 411 317 l 1,1,-1
 43 317 l 1,2,-1
 85 403 l 1,3,-1
 453 403 l 1,0,-1
863 403 m 1,4,-1
 821 317 l 1,5,-1
 453 317 l 1,6,-1
 495 403 l 1,7,-1
 863 403 l 1,4,-1
EndSplineSet
EndChar

StartChar: quotedblleft
Encoding: 8220 8220 165
Width: 330
Flags: W
LayerCount: 2
Fore
SplineSet
309 720 m 1,0,-1
 262 472 l 1,1,-1
 173 472 l 1,2,-1
 220 720 l 1,3,-1
 309 720 l 1,0,-1
158 720 m 1,4,-1
 111 472 l 1,5,-1
 22 472 l 1,6,-1
 69 720 l 1,7,-1
 158 720 l 1,4,-1
EndSplineSet
EndChar

StartChar: quotedblright
Encoding: 8221 8221 166
Width: 330
Flags: W
LayerCount: 2
Fore
SplineSet
309 720 m 1,0,-1
 262 472 l 1,1,-1
 173 472 l 1,2,-1
 220 720 l 1,3,-1
 309 720 l 1,0,-1
158 720 m 1,4,-1
 111 472 l 1,5,-1
 22 472 l 1,6,-1
 69 720 l 1,7,-1
 158 720 l 1,4,-1
EndSplineSet
EndChar

StartChar: quoteleft
Encoding: 8216 8216 167
Width: 180
Flags: W
LayerCount: 2
Fore
SplineSet
158 720 m 1,0,-1
 111 472 l 1,1,-1
 22 472 l 1,2,-1
 69 720 l 1,3,-1
 158 720 l 1,0,-1
EndSplineSet
EndChar

StartChar: quoteright
Encoding: 8217 8217 168
Width: 180
Flags: W
LayerCount: 2
Fore
SplineSet
158 720 m 1,0,-1
 111 472 l 1,1,-1
 22 472 l 1,2,-1
 69 720 l 1,3,-1
 158 720 l 1,0,-1
EndSplineSet
EndChar

StartChar: divide
Encoding: 247 247 169
Width: 342
Flags: W
LayerCount: 2
Fore
SplineSet
321 302 m 1,0,-1
 263 216 l 1,1,-1
 22 216 l 1,2,-1
 80 302 l 1,3,-1
 321 302 l 1,0,-1
217 341 m 1,4,-1
 131 341 l 1,5,-1
 131 489 l 1,6,-1
 217 489 l 1,7,-1
 217 341 l 1,4,-1
217 21 m 1,8,-1
 131 21 l 1,9,-1
 131 176 l 1,10,-1
 217 176 l 1,11,-1
 217 21 l 1,8,-1
EndSplineSet
EndChar

StartChar: fraction
Encoding: 8725 8725 172
Width: 238
Flags: W
LayerCount: 2
Fore
SplineSet
282 720 m 1,0,-1
 146 341 l 1,1,-1
 117 428 l 1,2,-1
 222 720 l 1,3,-1
 282 720 l 1,0,-1
139 320 m 1,4,-1
 24 0 l 1,5,-1
 -36 0 l 1,6,-1
 79 320 l 1,7,-1
 139 320 l 1,4,-1
EndSplineSet
EndChar

StartChar: currency
Encoding: 164 164 173
Width: 455
Flags: W
LayerCount: 2
Fore
SplineSet
406 505 m 1,0,-1
 343 445 l 1,1,2
 370 407 370 407 370 361 c 256,3,4
 370 315 370 315 342 276 c 1,5,-1
 405 213 l 1,6,-1
 398 205 l 1,7,-1
 391 198 l 1,8,-1
 374 183 l 1,9,-1
 312 246 l 1,10,11
 275 218 275 218 228 218 c 0,12,13
 180 218 180 218 144 247 c 1,14,-1
 79 184 l 1,15,16
 71 190 71 190 64.5 197 c 128,-1,17
 58 204 58 204 50 214 c 1,18,-1
 114 277 l 1,19,20
 85 315 85 315 85 361 c 256,21,22
 85 407 85 407 113 444 c 1,23,-1
 51 504 l 1,24,-1
 64 521 l 1,25,-1
 72 529 l 1,26,-1
 79 536 l 1,27,-1
 143 474 l 1,28,29
 181 502 181 502 229 502 c 0,30,31
 276 502 276 502 313 474 c 1,32,-1
 375 537 l 1,33,34
 391 525 391 525 406 505 c 1,0,-1
295 292 m 0,35,36
 324 321 324 321 324 360 c 256,37,38
 324 399 324 399 295.5 427.5 c 128,-1,39
 267 456 267 456 228 456 c 0,40,41
 190 456 190 456 160.5 427.5 c 128,-1,42
 131 399 131 399 131 360 c 256,43,44
 131 321 131 321 159.5 292.5 c 128,-1,45
 188 264 188 264 228 264 c 256,46,47
 268 264 268 264 295 292 c 0,35,36
EndSplineSet
EndChar

StartChar: guilsinglleft
Encoding: 8249 8249 174
Width: 240
Flags: W
LayerCount: 2
Fore
SplineSet
218 468 m 1,0,-1
 115 245 l 1,1,-1
 22 245 l 1,2,-1
 123 468 l 1,3,-1
 218 468 l 1,0,-1
216 0 m 1,4,-1
 122 0 l 1,5,-1
 22 221 l 1,6,-1
 115 221 l 1,7,-1
 216 0 l 1,4,-1
EndSplineSet
EndChar

StartChar: guilsinglright
Encoding: 8250 8250 175
Width: 240
Flags: W
LayerCount: 2
Fore
SplineSet
218 247 m 1,0,-1
 125 247 l 1,1,-1
 23 468 l 1,2,-1
 118 468 l 1,3,-1
 218 247 l 1,0,-1
217 223 m 1,4,-1
 117 0 l 1,5,-1
 22 0 l 1,6,-1
 125 223 l 1,7,-1
 217 223 l 1,4,-1
EndSplineSet
EndChar

StartChar: daggerdbl
Encoding: 8225 8225 176
Width: 500
Flags: W
LayerCount: 2
Fore
SplineSet
293 548 m 1,0,-1
 251 504 l 1,1,-1
 207 549 l 1,2,-1
 207 681 l 1,3,-1
 251 720 l 1,4,-1
 293 681 l 1,5,-1
 293 548 l 1,0,-1
480 487 m 1,6,-1
 437 446 l 1,7,-1
 308 446 l 1,8,-1
 269 490 l 1,9,-1
 311 533 l 1,10,-1
 440 533 l 1,11,-1
 480 487 l 1,6,-1
238 490 m 1,12,-1
 192 446 l 1,13,-1
 63 446 l 1,14,-1
 22 487 l 1,15,-1
 64 533 l 1,16,-1
 193 533 l 1,17,-1
 238 490 l 1,12,-1
293 302 m 1,18,-1
 251 258 l 1,19,-1
 207 303 l 1,20,-1
 207 435 l 1,21,-1
 251 474 l 1,22,-1
 293 435 l 1,23,-1
 293 302 l 1,18,-1
480 241 m 1,24,-1
 437 200 l 1,25,-1
 308 200 l 1,26,-1
 269 244 l 1,27,-1
 311 287 l 1,28,-1
 440 287 l 1,29,-1
 480 241 l 1,24,-1
238 244 m 1,30,-1
 192 200 l 1,31,-1
 63 200 l 1,32,-1
 22 241 l 1,33,-1
 64 287 l 1,34,-1
 193 287 l 1,35,-1
 238 244 l 1,30,-1
293 39 m 1,36,-1
 249 0 l 1,37,-1
 207 39 l 1,38,-1
 207 186 l 1,39,-1
 251 229 l 1,40,-1
 293 186 l 1,41,-1
 293 39 l 1,36,-1
EndSplineSet
EndChar

StartChar: periodcentered
Encoding: 183 183 177
AltUni2: 002219.ffffffff.0
Width: 129
Flags: W
LayerCount: 2
Fore
SplineSet
108 285 m 1,0,-1
 22 285 l 1,1,-1
 22 440 l 1,2,-1
 108 440 l 1,3,-1
 108 285 l 1,0,-1
EndSplineSet
EndChar

StartChar: quotesinglbase
Encoding: 8218 8218 178
Width: 143
Flags: W
LayerCount: 2
Fore
SplineSet
122 155 m 1,0,-1
 75 -94 l 1,1,-1
 -14 -94 l 1,2,-1
 33 155 l 1,3,-1
 122 155 l 1,0,-1
EndSplineSet
EndChar

StartChar: quotedblbase
Encoding: 8222 8222 179
Width: 294
Flags: W
LayerCount: 2
Fore
SplineSet
273 155 m 1,0,-1
 226 -94 l 1,1,-1
 137 -94 l 1,2,-1
 184 155 l 1,3,-1
 273 155 l 1,0,-1
122 155 m 1,4,-1
 75 -94 l 1,5,-1
 -14 -94 l 1,6,-1
 33 155 l 1,7,-1
 122 155 l 1,4,-1
EndSplineSet
EndChar

StartChar: perthousand
Encoding: 8240 8240 180
Width: 990
Flags: W
LayerCount: 2
Fore
SplineSet
916 329 m 1,0,-1
 878 282 l 1,1,-1
 793 282 l 1,2,-1
 755 328 l 1,3,-1
 795 369 l 1,4,-1
 878 369 l 1,5,-1
 916 329 l 1,0,-1
969 104 m 1,6,-1
 929 61 l 1,7,-1
 892 104 l 1,8,-1
 892 273 l 1,9,-1
 929 317 l 1,10,-1
 969 274 l 1,11,-1
 969 104 l 1,6,-1
571 720 m 1,12,-1
 361 341 l 1,13,-1
 332 428 l 1,14,-1
 495 720 l 1,15,-1
 571 720 l 1,12,-1
781 103 m 1,16,-1
 743 60 l 1,17,-1
 702 104 l 1,18,-1
 702 273 l 1,19,-1
 743 316 l 1,20,-1
 781 273 l 1,21,-1
 781 103 l 1,16,-1
916 45 m 1,22,-1
 877 0 l 1,23,-1
 794 0 l 1,24,-1
 754 45 l 1,25,-1
 793 86 l 1,26,-1
 878 86 l 1,27,-1
 916 45 l 1,22,-1
594 329 m 1,28,-1
 556 282 l 1,29,-1
 471 282 l 1,30,-1
 433 328 l 1,31,-1
 472 369 l 1,32,-1
 556 369 l 1,33,-1
 594 329 l 1,28,-1
236 675 m 1,34,-1
 198 634 l 1,35,-1
 113 634 l 1,36,-1
 75 675 l 1,37,-1
 114 720 l 1,38,-1
 198 720 l 1,39,-1
 236 675 l 1,34,-1
647 104 m 1,40,-1
 607 61 l 1,41,-1
 570 104 l 1,42,-1
 570 273 l 1,43,-1
 606 317 l 1,44,-1
 647 274 l 1,45,-1
 647 104 l 1,40,-1
289 451 m 1,46,-1
 249 407 l 1,47,-1
 212 450 l 1,48,-1
 212 620 l 1,49,-1
 249 663 l 1,50,-1
 289 621 l 1,51,-1
 289 451 l 1,46,-1
459 103 m 1,52,-1
 421 60 l 1,53,-1
 380 104 l 1,54,-1
 380 273 l 1,55,-1
 421 316 l 1,56,-1
 459 273 l 1,57,-1
 459 103 l 1,52,-1
101 450 m 1,58,-1
 63 407 l 1,59,-1
 22 450 l 1,60,-1
 22 620 l 1,61,-1
 63 662 l 1,62,-1
 101 619 l 1,63,-1
 101 450 l 1,58,-1
236 392 m 1,64,-1
 197 353 l 1,65,-1
 114 353 l 1,66,-1
 74 392 l 1,67,-1
 113 438 l 1,68,-1
 198 438 l 1,69,-1
 236 392 l 1,64,-1
594 45 m 1,70,-1
 555 0 l 1,71,-1
 471 0 l 1,72,-1
 432 45 l 1,73,-1
 471 86 l 1,74,-1
 556 86 l 1,75,-1
 594 45 l 1,70,-1
350 320 m 1,76,-1
 172 0 l 1,77,-1
 97 0 l 1,78,-1
 275 320 l 1,79,-1
 350 320 l 1,76,-1
EndSplineSet
EndChar

StartChar: dotlessi
Encoding: 305 305 197
Width: 170
Flags: W
LayerCount: 2
Fore
SplineSet
129 371 m 1,0,-1
 43 421 l 1,1,-1
 43 634 l 1,2,-1
 129 720 l 1,3,-1
 129 371 l 1,0,-1
129 0 m 1,4,-1
 43 86 l 1,5,-1
 43 306 l 1,6,-1
 129 349 l 1,7,-1
 129 0 l 1,4,-1
EndSplineSet
EndChar

StartChar: circumflex
Encoding: 710 710 198
Width: 390
Flags: W
LayerCount: 2
Fore
SplineSet
392 730 m 1,0,-1
 265 730 l 1,1,-1
 203 789 l 1,2,-1
 230 888 l 1,3,-1
 392 730 l 1,0,-1
181 789 m 1,4,-1
 119 730 l 1,5,-1
 0 730 l 1,6,-1
 157 889 l 1,7,-1
 181 789 l 1,4,-1
EndSplineSet
EndChar

StartChar: tilde
Encoding: 732 732 199
Width: 313
Flags: W
LayerCount: 2
Fore
SplineSet
314 869 m 1,0,-1
 278 754 l 1,1,-1
 220 861 l 1,2,-1
 230 892 l 1,3,-1
 314 869 l 1,0,-1
257 742 m 1,4,-1
 117 785 l 1,5,-1
 57 892 l 1,6,-1
 202 847 l 1,7,-1
 257 742 l 1,4,-1
93 773 m 1,8,-1
 83 742 l 1,9,-1
 0 766 l 1,10,-1
 35 881 l 1,11,-1
 93 773 l 1,8,-1
EndSplineSet
EndChar

StartChar: macron
Encoding: 175 175 200
Width: 298
Flags: W
LayerCount: 2
Fore
SplineSet
305 880 m 1,0,-1
 247 794 l 1,1,-1
 6 794 l 1,2,-1
 64 880 l 1,3,-1
 305 880 l 1,0,-1
EndSplineSet
EndChar

StartChar: breve
Encoding: 728 728 201
Width: 250
Flags: W
LayerCount: 2
Fore
SplineSet
252 802 m 1,0,-1
 209 759 l 1,1,-1
 166 802 l 1,2,-1
 166 831 l 1,3,-1
 252 874 l 1,4,-1
 252 802 l 1,0,-1
195 745 m 1,5,-1
 151 702 l 1,6,-1
 101 702 l 1,7,-1
 57 745 l 1,8,-1
 101 788 l 1,9,-1
 151 788 l 1,10,-1
 195 745 l 1,5,-1
86 802 m 1,11,-1
 43 759 l 1,12,-1
 0 802 l 1,13,-1
 0 874 l 1,14,-1
 86 831 l 1,15,-1
 86 802 l 1,11,-1
EndSplineSet
EndChar

StartChar: ring
Encoding: 730 730 202
Width: 495
Flags: W
LayerCount: 2
Fore
SplineSet
383 834 m 1,0,-1
 344 797 l 1,1,-1
 310 832 l 1,2,-1
 310 916 l 1,3,-1
 344 952 l 1,4,-1
 383 915 l 1,5,-1
 383 834 l 1,0,-1
332 962 m 1,6,-1
 296 928 l 1,7,-1
 211 928 l 1,8,-1
 174 962 l 1,9,-1
 212 1001 l 1,10,-1
 295 1001 l 1,11,-1
 332 962 l 1,6,-1
332 783 m 1,12,-1
 302 755 l 1,13,-1
 204 755 l 1,14,-1
 174 783 l 1,15,-1
 218 826 l 1,16,-1
 289 826 l 1,17,-1
 332 783 l 1,12,-1
199 832 m 1,18,-1
 163 797 l 1,19,-1
 124 834 l 1,20,-1
 124 914 l 1,21,-1
 163 951 l 1,22,-1
 199 915 l 1,23,-1
 199 832 l 1,18,-1
EndSplineSet
EndChar

StartChar: cedilla
Encoding: 184 184 203
Width: 184
Flags: W
LayerCount: 2
Fore
SplineSet
185 -25 m 1,0,-1
 131 -98 l 1,1,-1
 39 -98 l 1,2,-1
 94 -25 l 1,3,-1
 185 -25 l 1,0,-1
EndSplineSet
EndChar

StartChar: caron
Encoding: 711 711 204
Width: 384
Flags: W
LayerCount: 2
Fore
SplineSet
385 880 m 1,0,-1
 228 721 l 1,1,-1
 208 821 l 1,2,-1
 270 880 l 1,3,-1
 385 880 l 1,0,-1
189 818 m 1,4,-1
 165 722 l 1,5,-1
 0 880 l 1,6,-1
 123 880 l 1,7,-1
 189 818 l 1,4,-1
EndSplineSet
EndChar

StartChar: brokenbar
Encoding: 166 166 211
Width: 170
Flags: W
LayerCount: 2
Fore
SplineSet
129 371 m 1,0,-1
 43 421 l 1,1,-1
 43 634 l 1,2,-1
 129 720 l 1,3,-1
 129 371 l 1,0,-1
129 0 m 1,4,-1
 43 86 l 1,5,-1
 43 306 l 1,6,-1
 129 349 l 1,7,-1
 129 0 l 1,4,-1
EndSplineSet
EndChar

StartChar: Eth
Encoding: 208 208 212
Width: 599
Flags: W
LayerCount: 2
Fore
SplineSet
563 371 m 1,0,-1
 477 421 l 1,1,-1
 477 619 l 1,2,-1
 520 662 l 1,3,-1
 563 619 l 1,4,-1
 563 371 l 1,0,-1
507 676 m 1,5,-1
 463 634 l 1,6,-1
 254 634 l 1,7,-1
 167 720 l 1,8,-1
 463 720 l 1,9,-1
 507 676 l 1,5,-1
239 421 m 1,10,-1
 153 371 l 1,11,-1
 153 706 l 1,12,-1
 239 619 l 1,13,-1
 239 421 l 1,10,-1
563 101 m 1,14,-1
 520 58 l 1,15,-1
 477 101 l 1,16,-1
 477 306 l 1,17,-1
 563 349 l 1,18,-1
 563 101 l 1,14,-1
239 101 m 1,19,-1
 153 14 l 1,20,-1
 153 349 l 1,21,-1
 239 306 l 1,22,-1
 239 101 l 1,19,-1
507 44 m 1,23,-1
 463 0 l 1,24,-1
 167 0 l 1,25,-1
 254 86 l 1,26,-1
 463 86 l 1,27,-1
 507 44 l 1,23,-1
133 403 m 1,28,-1
 91 317 l 1,29,-1
 -7 317 l 1,30,-1
 35 403 l 1,31,-1
 133 403 l 1,28,-1
EndSplineSet
EndChar

StartChar: eth
Encoding: 240 240 213
Width: 599
Flags: W
LayerCount: 2
Fore
SplineSet
563 371 m 1,0,-1
 477 421 l 1,1,-1
 477 619 l 1,2,-1
 520 662 l 1,3,-1
 563 619 l 1,4,-1
 563 371 l 1,0,-1
507 676 m 1,5,-1
 463 634 l 1,6,-1
 254 634 l 1,7,-1
 167 720 l 1,8,-1
 463 720 l 1,9,-1
 507 676 l 1,5,-1
239 421 m 1,10,-1
 153 371 l 1,11,-1
 153 706 l 1,12,-1
 239 619 l 1,13,-1
 239 421 l 1,10,-1
563 101 m 1,14,-1
 520 58 l 1,15,-1
 477 101 l 1,16,-1
 477 306 l 1,17,-1
 563 349 l 1,18,-1
 563 101 l 1,14,-1
239 101 m 1,19,-1
 153 14 l 1,20,-1
 153 349 l 1,21,-1
 239 306 l 1,22,-1
 239 101 l 1,19,-1
507 44 m 1,23,-1
 463 0 l 1,24,-1
 167 0 l 1,25,-1
 254 86 l 1,26,-1
 463 86 l 1,27,-1
 507 44 l 1,23,-1
133 403 m 1,28,-1
 91 317 l 1,29,-1
 -7 317 l 1,30,-1
 35 403 l 1,31,-1
 133 403 l 1,28,-1
EndSplineSet
EndChar

StartChar: minus
Encoding: 173 173 218
Width: 298
Flags: W
LayerCount: 2
Fore
SplineSet
299 306 m 1,0,-1
 241 220 l 1,1,-1
 0 220 l 1,2,-1
 58 306 l 1,3,-1
 299 306 l 1,0,-1
EndSplineSet
EndChar

StartChar: multiply
Encoding: 215 215 219
Width: 496
Flags: W
LayerCount: 2
Fore
SplineSet
364 537 m 1,0,-1
 397 449 l 1,1,-1
 318 371 l 1,2,-1
 260 373 l 1,3,-1
 260 434 l 1,4,-1
 364 537 l 1,0,-1
236 431 m 1,5,-1
 238 371 l 1,6,-1
 174 371 l 1,7,-1
 99 446 l 1,8,-1
 132 535 l 1,9,-1
 236 431 l 1,5,-1
238 352 m 1,10,-1
 236 289 l 1,11,-1
 132 185 l 1,12,-1
 100 274 l 1,13,-1
 176 350 l 1,14,-1
 238 352 l 1,10,-1
394 274 m 1,15,-1
 361 185 l 1,16,-1
 258 289 l 1,17,-1
 258 351 l 1,18,-1
 318 349 l 1,19,-1
 394 274 l 1,15,-1
EndSplineSet
EndChar

StartChar: onesuperior
Encoding: 185 185 220
Width: 247
Flags: W
LayerCount: 2
Fore
SplineSet
146 702 m 1,0,-1
 103 727 l 1,1,-1
 103 833 l 1,2,-1
 146 876 l 1,3,-1
 146 702 l 1,0,-1
146 516 m 1,4,-1
 103 559 l 1,5,-1
 103 669 l 1,6,-1
 146 691 l 1,7,-1
 146 516 l 1,4,-1
EndSplineSet
EndChar

StartChar: twosuperior
Encoding: 178 178 221
Width: 247
Flags: W
LayerCount: 2
Fore
SplineSet
227 696 m 1,0,-1
 184 721 l 1,1,-1
 184 820 l 1,2,-1
 205 841 l 1,3,-1
 227 820 l 1,4,-1
 227 696 l 1,0,-1
199 848 m 1,5,-1
 177 827 l 1,6,-1
 22 827 l 1,7,-1
 72 870 l 1,8,-1
 177 870 l 1,9,-1
 199 848 l 1,5,-1
217 690 m 1,10,-1
 177 670 l 1,11,-1
 72 670 l 1,12,-1
 32 690 l 1,13,-1
 72 714 l 1,14,-1
 177 714 l 1,15,-1
 217 690 l 1,10,-1
227 510 m 1,16,-1
 72 510 l 1,17,-1
 50 532 l 1,18,-1
 72 553 l 1,19,-1
 186 553 l 1,20,-1
 227 510 l 1,16,-1
65 561 m 1,21,-1
 43 539 l 1,22,-1
 22 561 l 1,23,-1
 22 685 l 1,24,-1
 65 663 l 1,25,-1
 65 561 l 1,21,-1
EndSplineSet
EndChar

StartChar: threesuperior
Encoding: 179 179 222
Width: 247
Flags: W
LayerCount: 2
Fore
SplineSet
221 696 m 1,0,-1
 178 721 l 1,1,-1
 178 820 l 1,2,-1
 199 841 l 1,3,-1
 221 820 l 1,4,-1
 221 696 l 1,0,-1
193 848 m 1,5,-1
 171 827 l 1,6,-1
 66 827 l 1,7,-1
 25 870 l 1,8,-1
 171 870 l 1,9,-1
 193 848 l 1,5,-1
221 561 m 1,10,-1
 199 539 l 1,11,-1
 178 561 l 1,12,-1
 178 663 l 1,13,-1
 221 685 l 1,14,-1
 221 561 l 1,10,-1
211 690 m 1,15,-1
 171 670 l 1,16,-1
 66 670 l 1,17,-1
 26 690 l 1,18,-1
 66 714 l 1,19,-1
 171 714 l 1,20,-1
 211 690 l 1,15,-1
193 532 m 1,21,-1
 171 510 l 1,22,-1
 25 510 l 1,23,-1
 66 553 l 1,24,-1
 171 553 l 1,25,-1
 193 532 l 1,21,-1
EndSplineSet
EndChar

StartChar: onehalf
Encoding: 189 189 223
Width: 563
Flags: W
LayerCount: 2
Fore
SplineSet
524 192 m 1,0,-1
 481 217 l 1,1,-1
 481 316 l 1,2,-1
 502 337 l 1,3,-1
 524 316 l 1,4,-1
 524 192 l 1,0,-1
496 344 m 1,5,-1
 474 323 l 1,6,-1
 319 323 l 1,7,-1
 369 366 l 1,8,-1
 474 366 l 1,9,-1
 496 344 l 1,5,-1
514 186 m 1,10,-1
 474 166 l 1,11,-1
 369 166 l 1,12,-1
 329 186 l 1,13,-1
 369 210 l 1,14,-1
 474 210 l 1,15,-1
 514 186 l 1,10,-1
524 6 m 1,16,-1
 369 6 l 1,17,-1
 347 28 l 1,18,-1
 369 49 l 1,19,-1
 483 49 l 1,20,-1
 524 6 l 1,16,-1
362 57 m 1,21,-1
 340 35 l 1,22,-1
 319 57 l 1,23,-1
 319 181 l 1,24,-1
 362 159 l 1,25,-1
 362 57 l 1,21,-1
146 702 m 1,26,-1
 103 727 l 1,27,-1
 103 833 l 1,28,-1
 146 876 l 1,29,-1
 146 702 l 1,26,-1
146 516 m 1,30,-1
 103 559 l 1,31,-1
 103 669 l 1,32,-1
 146 691 l 1,33,-1
 146 516 l 1,30,-1
372 720 m 1,34,-1
 236 341 l 1,35,-1
 207 428 l 1,36,-1
 312 720 l 1,37,-1
 372 720 l 1,34,-1
229 320 m 1,38,-1
 114 0 l 1,39,-1
 54 0 l 1,40,-1
 169 320 l 1,41,-1
 229 320 l 1,38,-1
EndSplineSet
EndChar

StartChar: onequarter
Encoding: 188 188 224
Width: 623
Flags: W
LayerCount: 2
Fore
SplineSet
146 702 m 1,0,-1
 103 727 l 1,1,-1
 103 833 l 1,2,-1
 146 876 l 1,3,-1
 146 702 l 1,0,-1
146 516 m 1,4,-1
 103 559 l 1,5,-1
 103 669 l 1,6,-1
 146 691 l 1,7,-1
 146 516 l 1,4,-1
590 195 m 1,8,-1
 547 220 l 1,9,-1
 547 326 l 1,10,-1
 590 369 l 1,11,-1
 590 195 l 1,8,-1
428 220 m 1,12,-1
 385 195 l 1,13,-1
 385 369 l 1,14,-1
 428 326 l 1,15,-1
 428 220 l 1,12,-1
580 189 m 1,16,-1
 540 169 l 1,17,-1
 435 169 l 1,18,-1
 395 189 l 1,19,-1
 435 213 l 1,20,-1
 540 213 l 1,21,-1
 580 189 l 1,16,-1
590 9 m 1,22,-1
 547 52 l 1,23,-1
 547 162 l 1,24,-1
 590 184 l 1,25,-1
 590 9 l 1,22,-1
402 720 m 1,26,-1
 266 341 l 1,27,-1
 237 428 l 1,28,-1
 342 720 l 1,29,-1
 402 720 l 1,26,-1
259 320 m 1,30,-1
 144 0 l 1,31,-1
 84 0 l 1,32,-1
 199 320 l 1,33,-1
 259 320 l 1,30,-1
EndSplineSet
EndChar

StartChar: threequarters
Encoding: 190 190 225
Width: 623
Flags: W
LayerCount: 2
Fore
SplineSet
221 696 m 1,0,-1
 178 721 l 1,1,-1
 178 820 l 1,2,-1
 199 841 l 1,3,-1
 221 820 l 1,4,-1
 221 696 l 1,0,-1
193 848 m 1,5,-1
 171 827 l 1,6,-1
 66 827 l 1,7,-1
 25 870 l 1,8,-1
 171 870 l 1,9,-1
 193 848 l 1,5,-1
221 561 m 1,10,-1
 199 539 l 1,11,-1
 178 561 l 1,12,-1
 178 663 l 1,13,-1
 221 685 l 1,14,-1
 221 561 l 1,10,-1
211 690 m 1,15,-1
 171 670 l 1,16,-1
 66 670 l 1,17,-1
 26 690 l 1,18,-1
 66 714 l 1,19,-1
 171 714 l 1,20,-1
 211 690 l 1,15,-1
193 532 m 1,21,-1
 171 510 l 1,22,-1
 25 510 l 1,23,-1
 66 553 l 1,24,-1
 171 553 l 1,25,-1
 193 532 l 1,21,-1
590 195 m 1,26,-1
 547 220 l 1,27,-1
 547 326 l 1,28,-1
 590 369 l 1,29,-1
 590 195 l 1,26,-1
428 220 m 1,30,-1
 385 195 l 1,31,-1
 385 369 l 1,32,-1
 428 326 l 1,33,-1
 428 220 l 1,30,-1
580 189 m 1,34,-1
 540 169 l 1,35,-1
 435 169 l 1,36,-1
 395 189 l 1,37,-1
 435 213 l 1,38,-1
 540 213 l 1,39,-1
 580 189 l 1,34,-1
590 9 m 1,40,-1
 547 52 l 1,41,-1
 547 162 l 1,42,-1
 590 184 l 1,43,-1
 590 9 l 1,40,-1
422 720 m 1,44,-1
 286 341 l 1,45,-1
 257 428 l 1,46,-1
 362 720 l 1,47,-1
 422 720 l 1,44,-1
279 320 m 1,48,-1
 164 0 l 1,49,-1
 104 0 l 1,50,-1
 219 320 l 1,51,-1
 279 320 l 1,48,-1
EndSplineSet
EndChar
